<svg width="14" height="14" viewBox="0 0 14 14" fill="none" xmlns="http://www.w3.org/2000/svg">
<g id="icons/fill/&#231;&#164;&#188;&#231;&#137;&#169;">
<path id="&#244;&#128;&#147;&#129;" d="M1.75 6.44147C1.75 7.05893 2.08939 7.32974 2.69394 7.32974H6.50152V4.24246H5.69545C4.85758 4.24246 4.3697 3.73333 4.3697 3.12671C4.3697 2.55258 4.78333 2.18428 5.36667 2.18428C5.99242 2.18428 6.50152 2.69341 6.50152 3.48418V4.24246H7.49848V7.32974H11.3167C11.9212 7.32974 12.25 7.05893 12.25 6.44147V5.21739C12.25 4.54577 11.8894 4.24246 11.2212 4.24246H10.1394C10.4576 3.93915 10.6273 3.51668 10.6273 3.04005C10.6273 1.93513 9.78939 1.16602 8.72879 1.16602C7.93333 1.16602 7.27576 1.62098 7 2.43343C6.73485 1.62098 6.06667 1.16602 5.27121 1.16602C4.21061 1.16602 3.37273 1.93513 3.37273 3.04005C3.37273 3.51668 3.54242 3.93915 3.86061 4.24246H2.77879C2.14242 4.24246 1.75 4.54577 1.75 5.21739V6.44147ZM8.31515 4.24246H7.49848V3.48418C7.49848 2.69341 8.00758 2.18428 8.64394 2.18428C9.21667 2.18428 9.6303 2.55258 9.6303 3.12671C9.6303 3.73333 9.14242 4.24246 8.31515 4.24246ZM2.50303 11.392C2.50303 12.3236 3.04394 12.8327 3.95606 12.8327H6.50152V7.99053H2.50303V11.392Z" fill="url(#paint0_linear_22514_190282)"/>
<path id="&#244;&#128;&#147;&#129;_2" d="M10.0437 12.8343H7.49829V7.99219H11.5074V11.3936C11.5074 12.3252 10.9665 12.8343 10.0437 12.8343Z" fill="url(#paint1_linear_22514_190282)"/>
</g>
<defs>
<linearGradient id="paint0_linear_22514_190282" x1="3.47785" y1="-5.50065" x2="17.883" y2="-0.110286" gradientUnits="userSpaceOnUse">
<stop stop-color="#4082FF"/>
<stop offset="1" stop-color="#454CFF"/>
</linearGradient>
<linearGradient id="paint1_linear_22514_190282" x1="10.5667" y1="7.80138" x2="6.29631" y2="11.0759" gradientUnits="userSpaceOnUse">
<stop stop-color="#ADD8FF"/>
<stop offset="1" stop-color="#49BEFF"/>
</linearGradient>
</defs>
</svg>
