<svg width="31" height="31" viewBox="0 0 31 31" fill="none" xmlns="http://www.w3.org/2000/svg">
  <rect width="31" height="31" rx="15.5" fill="#6F8089"/>
    <g clip-path="url(#clip0)">
      <path d="M16.7884 15.7663L23.3943 15.5968C23.8241 15.5859 24.1626 15.2296 24.1515 14.7998C24.1405 14.3701 23.7842 14.0316 23.3545 14.0427L16.7484 14.212L16.5792 7.60611C16.568 7.17631 16.2119 6.83794 15.7822 6.84896C15.3524 6.85988 15.0139 7.21616 15.025 7.64596L15.1943 14.2519L8.58836 14.4214C8.15856 14.4323 7.82009 14.7886 7.83121 15.2184C7.83661 15.4326 7.92854 15.625 8.07283 15.7621C8.21712 15.8992 8.41387 15.981 8.62821 15.9755L15.2341 15.806L15.4035 22.4121C15.409 22.6264 15.5009 22.8187 15.6452 22.9558C15.7894 23.0929 15.9862 23.1747 16.2005 23.1692C16.6303 23.1583 16.9688 22.802 16.9577 22.3722L16.7884 15.7663Z" fill="white"/>
    </g>
  <defs>
    <clipPath id="clip0">
      <rect width="12" height="12" fill="white" transform="translate(15.7825 6.51752) rotate(43.5312)"/>
    </clipPath>
  </defs>
</svg>
