<svg width="32" height="32" viewBox="0 0 32 32" fill="none" xmlns="http://www.w3.org/2000/svg">
<path d="M15.7041 0.931641C24.2645 0.931641 31.2041 7.87109 31.2041 16.4316C31.2041 24.9922 24.2645 31.9316 15.7041 31.9316C7.14374 31.9316 0.204102 24.9922 0.204102 16.4316C0.204102 7.87109 7.14374 0.931641 15.7041 0.931641Z" fill="black"/>
<path d="M16.9921 16.6975L23.5982 16.5281C24.0282 16.5174 24.3671 16.1614 24.3551 15.7312C24.3441 15.3015 23.9881 14.9632 23.5581 14.9744L16.9522 15.1433L16.7832 8.53738C16.7721 8.10721 16.4162 7.76931 15.9862 7.78055C15.5562 7.79129 15.2182 8.14724 15.2291 8.57742L15.3981 15.1834L8.79213 15.3523C8.36311 15.3636 8.02412 15.7205 8.03511 16.1492C8.04115 16.3645 8.13313 16.5564 8.27712 16.6931C8.42116 16.8303 8.61812 16.9124 8.83217 16.9075L15.4381 16.7376L15.6082 23.3435C15.6131 23.5574 15.7052 23.7503 15.8491 23.8875C15.9931 24.0242 16.1901 24.1062 16.4052 24.1004C16.8341 24.0891 17.1731 23.7332 17.1621 23.3035L16.9921 16.6975Z" fill="white"/>
</svg>
