<svg width="32" height="32" viewBox="0 0 32 32" fill="none" xmlns="http://www.w3.org/2000/svg">
<path d="M15.7798 0.623047C24.3403 0.623047 31.2798 7.5625 31.2798 16.123C31.2798 24.6836 24.3403 31.623 15.7798 31.623C7.21942 31.623 0.279846 24.6836 0.279846 16.123C0.279846 7.5625 7.21942 0.623047 15.7798 0.623047Z" fill="#21303F"/>
<path d="M17.0678 16.3889L23.6738 16.22C24.1038 16.2088 24.4428 15.8528 24.4309 15.4226C24.4198 14.9929 24.0639 14.6546 23.6339 14.6658L17.0278 14.8347L16.8588 8.22879C16.8479 7.79861 16.4918 7.46072 16.0618 7.47195C15.6319 7.48269 15.2938 7.83865 15.3048 8.26883L15.4738 14.8748L8.86781 15.0437C8.43886 15.055 8.09987 15.4119 8.11086 15.8406C8.11684 16.0559 8.20882 16.2478 8.35286 16.385C8.49684 16.5218 8.69386 16.6038 8.90785 16.5989L15.5138 16.429L15.6839 23.0349C15.6889 23.2488 15.7808 23.4417 15.9248 23.5789C16.0689 23.7156 16.2658 23.7976 16.4809 23.7918C16.9099 23.781 17.2489 23.4246 17.2378 22.9949L17.0678 16.3889Z" fill="white"/>
</svg>
