<svg width="25" height="25" viewBox="0 0 25 25" fill="none" xmlns="http://www.w3.org/2000/svg">
<path d="M12.0067 0.0866699C18.6341 0.0866699 24.0067 5.45923 24.0067 12.0867C24.0067 18.714 18.6341 24.0867 12.0067 24.0867C5.37927 24.0867 0.00671387 18.714 0.00671387 12.0867C0.00671387 5.45923 5.37927 0.0866699 12.0067 0.0866699Z" fill="#02B0B1"/>
<path d="M12.9226 12.0966L16.8167 8.20358C17.0697 7.94955 17.0697 7.54062 16.8167 7.28659C16.5637 7.03354 16.1537 7.03354 15.9007 7.28659L12.0067 11.1806L8.11264 7.28659C7.85965 7.03354 7.44968 7.03354 7.19669 7.28659C6.94363 7.54062 6.94363 7.94955 7.19669 8.20358L11.0907 12.0966L7.19669 15.9906C6.94363 16.2446 6.94363 16.6537 7.19669 16.9066C7.32266 17.0337 7.48868 17.0966 7.65463 17.0966C7.82065 17.0966 7.98666 17.0337 8.11264 16.9066L12.0067 13.0136L15.9007 16.9066C16.0266 17.0337 16.1927 17.0966 16.3587 17.0966C16.5247 17.0966 16.6906 17.0337 16.8167 16.9066C17.0697 16.6537 17.0697 16.2446 16.8167 15.9906L12.9226 12.0966Z" fill="white"/>
</svg>

