<svg width="24" height="12" viewBox="0 0 24 12" fill="none" xmlns="http://www.w3.org/2000/svg">
<path d="M22.3814 5.22455H3.35432L6.50624 2.08783C6.85793 1.73773 6.85933 1.16889 6.50923 0.817324C6.15926 0.465762 5.59035 0.464297 5.23866 0.814395L0.544144 5.48627C0.543839 5.48627 0.543656 5.48676 0.54335 5.48725C0.192581 5.83686 0.191483 6.40766 0.543228 6.75873C0.543534 6.75922 0.543839 6.75971 0.544022 6.75971L5.23854 11.4316C5.59023 11.7817 6.15913 11.7802 6.50923 11.4287C6.85927 11.0771 6.85786 10.5082 6.50618 10.1581L3.35432 7.02143H22.3814C22.8776 7.02143 23.2799 6.61908 23.2799 6.12299C23.2799 5.62689 22.8776 5.22455 22.3814 5.22455Z" fill="#7F93A0"/>
</svg>
