<svg width="8" height="17" viewBox="0 0 8 17" fill="none" xmlns="http://www.w3.org/2000/svg">
<path d="M3.33248 1.14795V14.3843L1.15047 12.1919C0.906938 11.9473 0.511187 11.9463 0.26668 12.189C0.0219287 12.4331 0.0210742 12.8291 0.264482 13.0732L3.51448 16.3394C3.5146 16.3394 3.51485 16.3394 3.51497 16.3403C3.7585 16.584 4.15547 16.584 4.39986 16.3403C4.39998 16.3403 4.40022 16.3394 4.40047 16.3394L7.65047 13.0732C7.89388 12.8291 7.89302 12.4331 7.64827 12.1899C7.40364 11.9463 7.00789 11.9473 6.76448 12.1919L4.58248 14.3843V1.14795C4.58248 0.803223 4.30257 0.522949 3.95748 0.522949C3.61226 0.522949 3.33248 0.803223 3.33248 1.14795Z" fill="#666666"/>
</svg>
