<svg width="16" height="16" viewBox="0 0 16 16" fill="none" xmlns="http://www.w3.org/2000/svg">
  <g clip-path="url(#clip0)">
    <path d="M7.37502 0.625005L7.37502 13.8612L5.19303 11.6686C4.94953 11.4239 4.55381 11.423 4.30915 11.6665C4.06447 11.91 4.06356 12.3057 4.30703 12.5504L7.55702 15.8161C7.55721 15.8163 7.55743 15.8165 7.55762 15.8167C7.80112 16.0607 8.19812 16.0615 8.44243 15.8167C8.44262 15.8165 8.44283 15.8164 8.44302 15.8162L11.693 12.5504C11.9365 12.3058 11.9356 11.9101 11.6909 11.6665C11.4462 11.423 11.0505 11.424 10.807 11.6686L8.62502 13.8612L8.62502 0.625005C8.62502 0.279817 8.34521 5.53758e-06 8.00002 5.55266e-06C7.65484 5.56775e-06 7.37502 0.279817 7.37502 0.625005Z" fill="black"/>
  </g>
  <defs>
    <clipPath id="clip0">
      <rect width="16" height="16" fill="white" transform="translate(0 16) rotate(-90)"/>
    </clipPath>
  </defs>
</svg>
