<svg width="8" height="17" viewBox="0 0 8 17" fill="none" xmlns="http://www.w3.org/2000/svg">
<path d="M3.40816 0.839355V14.0757L1.22615 11.8838C0.982622 11.6387 0.586992 11.6377 0.342363 11.8804C0.0976122 12.1245 0.0967578 12.5205 0.340166 12.7646L3.59017 16.0308C3.59029 16.0308 3.59053 16.0308 3.59078 16.0317C3.83418 16.2754 4.23128 16.2754 4.47554 16.0317C4.47579 16.0317 4.47591 16.0308 4.47615 16.0308L7.72615 12.7646C7.96968 12.5205 7.96871 12.1245 7.72408 11.8818C7.47933 11.6377 7.08357 11.6387 6.84017 11.8838L4.65816 14.0757V0.839355C4.65816 0.494629 4.37837 0.214355 4.03316 0.214355C3.68794 0.214355 3.40816 0.494629 3.40816 0.839355Z" fill="#7F93A0"/>
</svg>
