<svg width="23" height="13" viewBox="0 0 23 13" fill="none" xmlns="http://www.w3.org/2000/svg">
  <path d="M22.1015 5.60158H3.07454L6.22644 2.46496C6.57813 2.11493 6.57948 1.54609 6.22945 1.19439C5.87942 0.842656 5.31053 0.841354 4.95883 1.19134L0.264322 5.86321C0.264007 5.86348 0.263783 5.86379 0.263513 5.86406C-0.0872813 6.21409 -0.0884044 6.78478 0.263423 7.13598C0.263738 7.13625 0.263962 7.13656 0.264232 7.13683L4.95874 11.8087C5.31039 12.1586 5.87928 12.1574 6.22936 11.8056C6.57939 11.454 6.57804 10.8851 6.22635 10.5351L3.07454 7.39846H22.1015C22.5977 7.39846 23 6.99623 23 6.50002C23 6.00381 22.5977 5.60158 22.1015 5.60158Z" fill="black"/>
</svg>
