<svg width="24" height="13" viewBox="0 0 24 13" fill="none" xmlns="http://www.w3.org/2000/svg">
<path d="M22.3056 5.53314H3.27863L6.43054 2.39643C6.78223 2.04633 6.78363 1.47748 6.43353 1.12592C6.0835 0.774356 5.51465 0.772891 5.1629 1.12299L0.468445 5.79486C0.46814 5.79486 0.467957 5.79535 0.467652 5.79584C0.116821 6.14545 0.115723 6.71625 0.46753 7.06732C0.467835 7.06781 0.46814 7.0683 0.468323 7.0683L5.16284 11.7402C5.51453 12.0903 6.08344 12.0888 6.43353 11.7372C6.78351 11.3857 6.7821 10.8168 6.43042 10.4667L3.27863 7.33002H22.3056C22.8018 7.33002 23.2041 6.92768 23.2041 6.43158C23.2041 5.93549 22.8018 5.53314 22.3056 5.53314Z" fill="#666666"/>
</svg>
