<!-- <svg width="25" height="25" viewBox="0 0 25 25" fill="none" xmlns="http://www.w3.org/2000/svg">
<path d="M12.2041 0.931641C18.8315 0.931641 24.2041 6.3042 24.2041 12.9316C24.2041 19.5591 18.8315 24.9316 12.2041 24.9316C5.57672 24.9316 0.204102 19.5591 0.204102 12.9316C0.204102 6.3042 5.57672 0.931641 12.2041 0.931641Z" fill="black"/>
<path d="M13.1201 12.9412L17.0141 9.0481C17.2671 8.79419 17.2671 8.3855 17.0141 8.1311C16.7611 7.87817 16.3511 7.87817 16.0981 8.1311L12.2041 12.0251L8.3101 8.1311C8.05711 7.87817 7.64708 7.87817 7.39409 8.1311C7.1411 8.3855 7.1411 8.79419 7.39409 9.0481L11.2881 12.9412L7.39409 16.8352C7.1411 17.0891 7.1411 17.4983 7.39409 17.7512C7.52013 17.8782 7.68608 17.9412 7.8521 17.9412C8.01811 17.9412 8.18413 17.8782 8.3101 17.7512L12.2041 13.8582L16.0981 17.7512C16.2241 17.8782 16.3901 17.9412 16.5561 17.9412C16.7221 17.9412 16.8881 17.8782 17.0141 17.7512C17.2671 17.4983 17.2671 17.0891 17.0141 16.8352L13.1201 12.9412Z" fill="white"/>
</svg> -->

<svg width="25" height="25" viewBox="0 0 25 25" fill="none" xmlns="http://www.w3.org/2000/svg">
<path d="M12.2041 0.931641C18.8315 0.931641 24.2041 6.3042 24.2041 12.9316C24.2041 19.5591 18.8315 24.9316 12.2041 24.9316C5.57672 24.9316 0.204102 19.5591 0.204102 12.9316C0.204102 6.3042 5.57672 0.931641 12.2041 0.931641Z" fill="#2F2F2F"/>
<path d="M13.1201 12.9412L17.0141 9.0481C17.2671 8.79419 17.2671 8.3855 17.0141 8.1311C16.7611 7.87817 16.3511 7.87817 16.0981 8.1311L12.2041 12.0251L8.3101 8.1311C8.05711 7.87817 7.64714 7.87817 7.39409 8.1311C7.1411 8.3855 7.1411 8.79419 7.39409 9.0481L11.2881 12.9412L7.39409 16.8352C7.1411 17.0891 7.1411 17.4983 7.39409 17.7512C7.52013 17.8782 7.68614 17.9412 7.8521 17.9412C8.01811 17.9412 8.18413 17.8782 8.3101 17.7512L12.2041 13.8582L16.0981 17.7512C16.2241 17.8782 16.3901 17.9412 16.5561 17.9412C16.7221 17.9412 16.8881 17.8782 17.0141 17.7512C17.2671 17.4983 17.2671 17.0891 17.0141 16.8352L13.1201 12.9412Z" fill="white"/>
</svg>

