<svg width="25" height="25" viewBox="0 0 25 25" fill="none" xmlns="http://www.w3.org/2000/svg">
<path d="M12.6955 0.175781C19.3229 0.175781 24.6955 5.54834 24.6955 12.1758C24.6955 18.8032 19.3229 24.1758 12.6955 24.1758C6.06805 24.1758 0.695496 18.8032 0.695496 12.1758C0.695496 5.54834 6.06805 0.175781 12.6955 0.175781Z" fill="#3771DF"/>
<path d="M13.6114 12.1858L17.5055 8.29277C17.7585 8.03877 17.7585 7.62978 17.5055 7.37578C17.2525 7.12279 16.8424 7.12279 16.5894 7.37578L12.6955 11.2698L8.80142 7.37578C8.54843 7.12279 8.13846 7.12279 7.88547 7.37578C7.63242 7.62978 7.63242 8.03877 7.88547 8.29277L11.7794 12.1858L7.88547 16.0798C7.63242 16.3338 7.63242 16.7428 7.88547 16.9958C8.01144 17.1228 8.17746 17.1858 8.34341 17.1858C8.50943 17.1858 8.67545 17.1228 8.80142 16.9958L12.6955 13.1028L16.5894 16.9958C16.7154 17.1228 16.8814 17.1858 17.0475 17.1858C17.2135 17.1858 17.3794 17.1228 17.5055 16.9958C17.7585 16.7428 17.7585 16.3338 17.5055 16.0798L13.6114 12.1858Z" fill="white"/>
</svg>
