<svg width="12" height="12" viewBox="0 0 12 12" fill="none" xmlns="http://www.w3.org/2000/svg">
  <g clip-path="url(#clip0)">
    <path d="M7.0994 6.01251L11.772 1.33981C12.076 1.03587 12.076 0.544438 11.772 0.240498C11.468 -0.0634423 10.9766 -0.0634423 10.6727 0.240498L5.99994 4.9132L1.32737 0.240498C1.02329 -0.0634423 0.532003 -0.0634423 0.228062 0.240498C-0.0760207 0.544438 -0.0760207 1.03587 0.228062 1.33981L4.90063 6.01251L0.228062 10.6852C-0.0760207 10.9892 -0.0760207 11.4806 0.228062 11.7845C0.379534 11.9361 0.578697 12.0123 0.777718 12.0123C0.976738 12.0123 1.17576 11.9361 1.32737 11.7845L5.99994 7.11182L10.6727 11.7845C10.8243 11.9361 11.0233 12.0123 11.2223 12.0123C11.4213 12.0123 11.6204 11.9361 11.772 11.7845C12.076 11.4806 12.076 10.9892 11.772 10.6852L7.0994 6.01251Z" fill="black"/>
  </g>
  <defs>
    <clipPath id="clip0">
      <rect width="12" height="12" fill="white"/>
    </clipPath>
  </defs>
</svg>
