<svg width="13" height="13" viewBox="0 0 13 13" fill="none" xmlns="http://www.w3.org/2000/svg">
<path d="M7.91625 6.38416L12.5893 1.7113C12.8932 1.4071 12.8932 0.915405 12.5893 0.611206C12.2852 0.307983 11.7942 0.307983 11.4903 0.611206L6.81725 5.28406L2.14425 0.611206C1.84026 0.307983 1.34927 0.307983 1.04525 0.611206C0.741264 0.915405 0.741264 1.4071 1.04525 1.7113L5.71825 6.38416L1.04525 11.056C0.741264 11.3602 0.741264 11.8524 1.04525 12.1561C1.19726 12.307 1.39626 12.3832 1.59527 12.3832C1.79424 12.3832 1.99325 12.307 2.14425 12.1561L6.81725 7.48328L11.4903 12.1561C11.6413 12.307 11.8403 12.3832 12.0392 12.3832C12.2382 12.3832 12.4372 12.307 12.5893 12.1561C12.8932 11.8524 12.8932 11.3602 12.5893 11.056L7.91625 6.38416Z" fill="#919295"/>
</svg>
