<svg width="13" height="13" viewBox="0 0 13 13" fill="none" xmlns="http://www.w3.org/2000/svg">
<path d="M7.99194 6.07568L12.6649 1.40283C12.9689 1.09863 12.9689 0.606934 12.6649 0.302734C12.3609 0 11.8699 0 11.5659 0.302734L6.89294 4.97559L2.21993 0.302734C1.91595 0 1.42495 0 1.12093 0.302734C0.816948 0.606934 0.816948 1.09863 1.12093 1.40283L5.79394 6.07568L1.12093 10.7476C0.816948 11.0518 0.816948 11.5439 1.12093 11.8477C1.27294 11.9985 1.47195 12.0747 1.67095 12.0747C1.86993 12.0747 2.06893 11.9985 2.21993 11.8477L6.89294 7.1748L11.5659 11.8477C11.7169 11.9985 11.9159 12.0747 12.1149 12.0747C12.3139 12.0747 12.5129 11.9985 12.6649 11.8477C12.9689 11.5439 12.9689 11.0518 12.6649 10.7476L7.99194 6.07568Z" fill="#62737B"/>
</svg>
