<svg width="46" height="47" viewBox="0 0 46 47" fill="none" xmlns="http://www.w3.org/2000/svg">
<path d="M5.135 38.52V5.136H32.097V33.173L37.234 28.93V2.568C37.234 1.15 36.085 0 34.667 0H2.567C1.149 0 0 1.15 0 2.568V41.087C0 42.505 1.149 43.655 2.567 43.655H24.975L21.345 38.52H5.135Z" fill="#62737B"/>
<path d="M44.628 27.609C44.155 27.163 43.428 27.142 42.93 27.552L31.152 37.286L23.303 32.577C22.782 32.265 22.115 32.358 21.7 32.806C21.288 33.25 21.243 33.923 21.594 34.419L30.1 46.456C30.338 46.793 30.725 46.995 31.137 46.999C31.141 46.999 31.145 46.999 31.149 46.999C31.557 46.999 31.942 46.806 32.184 46.474L44.784 29.301C45.164 28.78 45.099 28.055 44.628 27.609Z" fill="#62737B"/>
<path d="M26.321 8.98779H10.912C9.49397 8.98779 8.34497 10.1378 8.34497 11.5558C8.34497 12.9738 9.49397 14.1238 10.912 14.1238H26.32C27.738 14.1238 28.886 12.9738 28.886 11.5558C28.886 10.1378 27.739 8.98779 26.321 8.98779Z" fill="#62737B"/>
<path d="M26.321 16.6909H10.912C9.49397 16.6909 8.34497 17.8409 8.34497 19.2589C8.34497 20.6769 9.49397 21.8269 10.912 21.8269H26.32C27.738 21.8269 28.886 20.6779 28.886 19.2589C28.889 17.8409 27.739 16.6909 26.321 16.6909Z" fill="#62737B"/>
<path d="M26.321 24.395H10.912C9.49397 24.395 8.34497 25.545 8.34497 26.963C8.34497 28.381 9.49397 29.531 10.912 29.531H26.32C27.738 29.531 28.886 28.381 28.886 26.963C28.889 25.545 27.739 24.395 26.321 24.395Z" fill="#62737B"/>
</svg>

