<svg width="48" height="47" viewBox="0 0 48 47" fill="none" xmlns="http://www.w3.org/2000/svg">
<path d="M5.135 38.52V5.136H32.097V33.173L37.234 28.93V2.568C37.234 1.15 36.085 0 34.667 0H2.567C1.149 0 0 1.15 0 2.568V41.087C0 42.505 1.149 43.655 2.567 43.655H24.975L21.345 38.52H5.135Z" fill="#919295"/>
<path d="M44.628 27.609C44.155 27.163 43.428 27.142 42.93 27.552L31.152 37.286L23.303 32.577C22.782 32.265 22.115 32.358 21.7 32.806C21.288 33.25 21.243 33.923 21.594 34.419L30.1 46.456C30.338 46.793 30.725 46.995 31.137 46.999C31.141 46.999 31.145 46.999 31.149 46.999C31.557 46.999 31.942 46.806 32.184 46.474L44.784 29.301C45.164 28.78 45.099 28.055 44.628 27.609Z" fill="#919295"/>
<path d="M26.321 8.98779H10.912C9.49397 8.98779 8.34497 10.1378 8.34497 11.5558C8.34497 12.9738 9.49397 14.1238 10.912 14.1238H26.32C27.738 14.1238 28.886 12.9738 28.886 11.5558C28.886 10.1378 27.739 8.98779 26.321 8.98779Z" fill="#919295"/>
<path d="M26.321 16.6909H10.912C9.49397 16.6909 8.34497 17.8409 8.34497 19.2589C8.34497 20.6769 9.49397 21.8269 10.912 21.8269H26.32C27.738 21.8269 28.886 20.6779 28.886 19.2589C28.889 17.8409 27.739 16.6909 26.321 16.6909Z" fill="#919295"/>
<path d="M26.321 24.395H10.912C9.49397 24.395 8.34497 25.545 8.34497 26.963C8.34497 28.381 9.49397 29.531 10.912 29.531H26.32C27.738 29.531 28.886 28.381 28.886 26.963C28.889 25.545 27.739 24.395 26.321 24.395Z" fill="#919295"/>
<path d="M6.135 38.52V5.136H33.097V33.173L38.234 28.93V2.568C38.234 1.15 37.085 0 35.667 0H3.567C2.149 0 1 1.15 1 2.568V41.087C1 42.505 2.149 43.655 3.567 43.655H25.975L22.345 38.52H6.135Z" fill="#919295"/>
<path d="M45.628 27.609C45.155 27.163 44.428 27.142 43.93 27.552L32.152 37.286L24.303 32.577C23.782 32.265 23.115 32.358 22.7 32.806C22.288 33.25 22.243 33.923 22.594 34.419L31.1 46.456C31.338 46.793 31.725 46.995 32.137 46.999C32.141 46.999 32.145 46.999 32.149 46.999C32.557 46.999 32.942 46.806 33.184 46.474L45.784 29.301C46.164 28.78 46.099 28.055 45.628 27.609Z" fill="#919295"/>
<path d="M27.321 8.98779H11.912C10.494 8.98779 9.34497 10.1378 9.34497 11.5558C9.34497 12.9738 10.494 14.1238 11.912 14.1238H27.32C28.738 14.1238 29.886 12.9738 29.886 11.5558C29.886 10.1378 28.739 8.98779 27.321 8.98779Z" fill="#919295"/>
<path d="M27.321 16.6909H11.912C10.494 16.6909 9.34497 17.8409 9.34497 19.2589C9.34497 20.6769 10.494 21.8269 11.912 21.8269H27.32C28.738 21.8269 29.886 20.6779 29.886 19.2589C29.889 17.8409 28.739 16.6909 27.321 16.6909Z" fill="#919295"/>
<path d="M27.321 24.395H11.912C10.494 24.395 9.34497 25.545 9.34497 26.963C9.34497 28.381 10.494 29.531 11.912 29.531H27.32C28.738 29.531 29.886 28.381 29.886 26.963C29.889 25.545 28.739 24.395 27.321 24.395Z" fill="#919295"/>
<path d="M7.135 38.52V5.136H34.097V33.173L39.234 28.93V2.568C39.234 1.15 38.085 0 36.667 0H4.567C3.149 0 2 1.15 2 2.568V41.087C2 42.505 3.149 43.655 4.567 43.655H26.975L23.345 38.52H7.135Z" fill="#919295"/>
<path d="M46.628 27.609C46.155 27.163 45.428 27.142 44.93 27.552L33.152 37.286L25.303 32.577C24.782 32.265 24.115 32.358 23.7 32.806C23.288 33.25 23.243 33.923 23.594 34.419L32.1 46.456C32.338 46.793 32.725 46.995 33.137 46.999C33.141 46.999 33.145 46.999 33.149 46.999C33.557 46.999 33.942 46.806 34.184 46.474L46.784 29.301C47.164 28.78 47.099 28.055 46.628 27.609Z" fill="#919295"/>
<path d="M28.321 8.98779H12.912C11.494 8.98779 10.345 10.1378 10.345 11.5558C10.345 12.9738 11.494 14.1238 12.912 14.1238H28.32C29.738 14.1238 30.886 12.9738 30.886 11.5558C30.886 10.1378 29.739 8.98779 28.321 8.98779Z" fill="#919295"/>
<path d="M28.321 16.6909H12.912C11.494 16.6909 10.345 17.8409 10.345 19.2589C10.345 20.6769 11.494 21.8269 12.912 21.8269H28.32C29.738 21.8269 30.886 20.6779 30.886 19.2589C30.889 17.8409 29.739 16.6909 28.321 16.6909Z" fill="#919295"/>
<path d="M28.321 24.395H12.912C11.494 24.395 10.345 25.545 10.345 26.963C10.345 28.381 11.494 29.531 12.912 29.531H28.32C29.738 29.531 30.886 28.381 30.886 26.963C30.889 25.545 29.739 24.395 28.321 24.395Z" fill="#919295"/>
</svg>
