<svg width="17" height="17" viewBox="0 0 17 17" fill="none" xmlns="http://www.w3.org/2000/svg">
<path d="M12.2462 3.22852H2.53125C1.58527 3.22852 0.817261 3.99609 0.817261 4.94238V14.6572C0.817261 15.6035 1.58527 16.3711 2.53125 16.3711H12.2462C13.1923 16.3711 13.9603 15.6035 13.9603 14.6572V4.94238C13.9603 3.99609 13.1923 3.22852 12.2462 3.22852ZM12.8173 14.6572C12.8173 14.9722 12.5612 15.2285 12.2462 15.2285H2.53125C2.21625 15.2285 1.96027 14.9722 1.96027 14.6572V4.94238C1.96027 4.62744 2.21625 4.37109 2.53125 4.37109H12.2462C12.5612 4.37109 12.8173 4.62744 12.8173 4.94238V14.6572Z" fill="#919295"/>
<path d="M15.1033 0.371094H4.81726C3.87027 0.371094 3.10327 1.13916 3.10327 2.08545C3.10327 2.40137 3.35925 2.65723 3.67426 2.65723C3.99026 2.65723 4.24625 2.40137 4.24625 2.08545C4.24625 1.77051 4.50125 1.51416 4.81726 1.51416H15.1033C15.4183 1.51416 15.6743 1.77051 15.6743 2.08545V12.3711C15.6743 12.6875 15.4183 12.9424 15.1033 12.9424C14.7873 12.9424 14.5312 13.1982 14.5312 13.5142C14.5312 13.8291 14.7873 14.0854 15.1033 14.0854C16.0493 14.0854 16.8173 13.3184 16.8173 12.3711V2.08545C16.8173 1.13916 16.0493 0.371094 15.1033 0.371094Z" fill="#919295"/>
</svg>
