<svg width="17" height="17" viewBox="0 0 17 17" fill="none" xmlns="http://www.w3.org/2000/svg">
<path d="M12.3219 2.91992H2.60693C1.66095 2.91992 0.892944 3.68799 0.892944 4.63379V14.3486C0.892944 15.2949 1.66095 16.063 2.60693 16.063H12.3219C13.2679 16.063 14.0359 15.2949 14.0359 14.3486V4.63379C14.0359 3.68799 13.2679 2.91992 12.3219 2.91992ZM12.8929 14.3486C12.8929 14.6636 12.6369 14.9199 12.3219 14.9199H2.60693C2.29193 14.9199 2.03595 14.6636 2.03595 14.3486V4.63379C2.03595 4.31885 2.29193 4.06299 2.60693 4.06299H12.3219C12.6369 4.06299 12.8929 4.31885 12.8929 4.63379V14.3486Z" fill="#62737B"/>
<path d="M15.179 0.0629883H4.89294C3.94595 0.0629883 3.17896 0.830566 3.17896 1.77686C3.17896 2.09277 3.43494 2.34863 3.74994 2.34863C4.06595 2.34863 4.32193 2.09277 4.32193 1.77686C4.32193 1.46191 4.57693 1.20557 4.89294 1.20557H15.179C15.494 1.20557 15.7499 1.46191 15.7499 1.77686V12.063C15.7499 12.3789 15.494 12.6338 15.179 12.6338C14.8629 12.6338 14.6069 12.8896 14.6069 13.2056C14.6069 13.521 14.8629 13.7769 15.179 13.7769C16.1249 13.7769 16.8929 13.0098 16.8929 12.063V1.77686C16.8929 0.830566 16.1249 0.0629883 15.179 0.0629883Z" fill="#62737B"/>
</svg>
