<!-- <svg width="25" height="25" viewBox="0 0 25 25" fill="none" xmlns="http://www.w3.org/2000/svg">
<path d="M12.3868 0.862305C19.0143 0.862305 24.3868 6.23486 24.3868 12.8623C24.3868 19.4897 19.0143 24.8623 12.3868 24.8623C5.75946 24.8623 0.386841 19.4897 0.386841 12.8623C0.386841 6.23486 5.75946 0.862305 12.3868 0.862305Z" fill="#B6C7D7"/>
<path d="M13.3028 12.8718L17.1968 8.97876C17.4499 8.72485 17.4499 8.31616 17.1968 8.06177C16.9438 7.80884 16.5339 7.80884 16.2809 8.06177L12.3868 11.9558L8.49284 8.06177C8.23985 7.80884 7.82982 7.80884 7.57683 8.06177C7.32384 8.31616 7.32384 8.72485 7.57683 8.97876L11.4709 12.8718L7.57683 16.7659C7.32384 17.0198 7.32384 17.429 7.57683 17.6819C7.70287 17.8088 7.86882 17.8718 8.03484 17.8718C8.20085 17.8718 8.36687 17.8088 8.49284 17.6819L12.3868 13.7888L16.2809 17.6819C16.4068 17.8088 16.5729 17.8718 16.7389 17.8718C16.9048 17.8718 17.0708 17.8088 17.1968 17.6819C17.4499 17.429 17.4499 17.0198 17.1968 16.7659L13.3028 12.8718Z" fill="white"/>
</svg> -->
<svg width="25" height="25" viewBox="0 0 25 25" fill="none" xmlns="http://www.w3.org/2000/svg">
<path d="M12.2798 0.623047C18.9072 0.623047 24.2798 5.99561 24.2798 12.623C24.2798 19.2505 18.9072 24.623 12.2798 24.623C5.6524 24.623 0.279846 19.2505 0.279846 12.623C0.279846 5.99561 5.6524 0.623047 12.2798 0.623047Z" fill="#121E26"/>
<path d="M13.1958 12.6329L17.0898 8.74036C17.3428 8.48596 17.3428 8.07727 17.0898 7.82336C16.8368 7.56995 16.4268 7.56995 16.1738 7.82336L12.2798 11.7169L8.38585 7.82336C8.1328 7.56995 7.72282 7.56995 7.46983 7.82336C7.21684 8.07727 7.21684 8.48596 7.46983 8.74036L11.3638 12.6329L7.46983 16.527C7.21684 16.7814 7.21684 17.1901 7.46983 17.443C7.59581 17.5699 7.76183 17.6329 7.92784 17.6329C8.0938 17.6329 8.25981 17.5699 8.38585 17.443L12.2798 13.5499L16.1738 17.443C16.2999 17.5699 16.4658 17.6329 16.6318 17.6329C16.7978 17.6329 16.9639 17.5699 17.0898 17.443C17.3428 17.1901 17.3428 16.7814 17.0898 16.527L13.1958 12.6329Z" fill="white"/>
</svg>

