<svg width="24" height="24" viewBox="0 0 24 24" fill="none" xmlns="http://www.w3.org/2000/svg">
<rect width="24" height="24" rx="12" fill="#55B85E"/>
<g clip-path="url(#clip0)">
<path d="M12.9162 12.0104L16.81 8.11652C17.0634 7.86324 17.0634 7.45371 16.81 7.20043C16.5567 6.94715 16.1472 6.94715 15.8939 7.20043L12 11.0944L8.10614 7.20043C7.85274 6.94715 7.44334 6.94715 7.19005 7.20043C6.93665 7.45371 6.93665 7.86324 7.19005 8.11652L11.0839 12.0104L7.19005 15.9044C6.93665 16.1576 6.93665 16.5672 7.19005 16.8205C7.31628 16.9468 7.48225 17.0103 7.6481 17.0103C7.81395 17.0103 7.9798 16.9468 8.10614 16.8205L12 12.9265L15.8939 16.8205C16.0202 16.9468 16.1861 17.0103 16.3519 17.0103C16.5178 17.0103 16.6836 16.9468 16.81 16.8205C17.0634 16.5672 17.0634 16.1576 16.81 15.9044L12.9162 12.0104Z" fill="white"/>
</g>
<defs>
<clipPath id="clip0">
<rect width="10" height="10" fill="white" transform="translate(7 7)"/>
</clipPath>
</defs>
</svg>
