<!-- <svg width="21" height="21" viewBox="0 0 21 21" fill="none" xmlns="http://www.w3.org/2000/svg">
<path d="M11.674 5.45361V9.73926L14.5179 12.5835C14.8229 12.8882 14.8229 13.3833 14.5179 13.688C14.213 13.9932 13.7189 13.9932 13.4139 13.688L10.3409 10.6152C10.1939 10.4688 10.1119 10.27 10.1119 10.063V5.45361C10.1119 5.02197 10.4619 4.67236 10.8929 4.67236C11.3239 4.67236 11.674 5.02197 11.674 5.45361ZM13.9659 0.0629883H7.81995C6.18393 0.0629883 4.56894 0.637695 3.27795 1.76123V0.84375C3.27795 0.412598 2.92795 0.0629883 2.49594 0.0629883C2.06494 0.0629883 1.71494 0.412598 1.71494 0.84375V3.91699C1.71494 4.34863 2.06793 4.69824 2.49594 4.69824H5.56894C6.00095 4.69824 6.35095 4.34863 6.35095 3.91699C6.35095 3.48535 6.00095 3.13574 5.56894 3.13574H4.09195C5.07996 2.18213 6.41495 1.62549 7.81995 1.62549H13.9659C16.924 1.62549 19.3309 4.03174 19.3309 6.98975V13.1357C19.3309 16.0938 16.924 18.5005 13.9659 18.5005H7.81995C4.86194 18.5005 2.45496 16.0938 2.45496 13.1357V10.063C2.45496 9.63135 2.10596 9.28174 1.67395 9.28174C1.24295 9.28174 0.892944 9.63135 0.892944 10.063V13.1357C0.892944 16.9551 3.99994 20.063 7.81995 20.063H13.9659C17.7859 20.063 20.8929 16.9551 20.8929 13.1357V6.98975C20.8929 3.17041 17.7859 0.0629883 13.9659 0.0629883Z" fill="#7F93A0"/>
</svg> -->

<svg width="23" height="20" viewBox="0 0 23 20" fill="none" xmlns="http://www.w3.org/2000/svg">
<g clip-path="url(#clip0_484_11)">
<path d="M11.4272 5.71436L11.4251 10.7116C11.4251 10.9014 11.5004 11.0827 11.6344 11.2166L15.2093 14.7908L16.2194 13.7808L12.8536 10.4158L12.8557 5.71436H11.4272Z" fill="#7F93A0"/>
<path d="M12.8571 0C7.82936 0 3.66822 3.73396 2.97131 8.57143H0L3.57142 12.1429L7.14285 8.57143H4.41474C5.0981 4.52411 8.61826 1.42859 12.8571 1.42859C17.5837 1.42859 21.4286 5.27344 21.4286 10C21.4286 14.7266 17.5837 18.5715 12.8571 18.5715C10.2002 18.5715 7.7365 17.3689 6.09793 15.2721L4.9721 16.151C6.88335 18.5966 9.75723 20 12.8571 20C18.3713 20 22.8571 15.5134 22.8571 10C22.8571 4.48665 18.3713 4.15e-05 12.8571 0Z" fill="#7F93A0"/>
</g>
<defs>
<clipPath id="clip0_484_11">
<rect width="22.8571" height="20" fill="white"/>
</clipPath>
</defs>
</svg>

