<!-- <svg width="21" height="21" viewBox="0 0 21 21" fill="none" xmlns="http://www.w3.org/2000/svg">
<path d="M11.5983 5.76172V10.0479L14.4423 12.8916C14.7473 13.1968 14.7473 13.6914 14.4423 13.9966C14.1373 14.3018 13.6432 14.3018 13.3383 13.9966L10.2653 10.9238C10.1183 10.7773 10.0363 10.5786 10.0363 10.3711V5.76172C10.0363 5.33057 10.3863 4.98047 10.8173 4.98047C11.2483 4.98047 11.5983 5.33057 11.5983 5.76172ZM13.8903 0.371094H7.74426C6.10825 0.371094 4.49326 0.946289 3.20227 2.06982V1.15234C3.20227 0.721191 2.85226 0.371094 2.42026 0.371094C1.98926 0.371094 1.63925 0.721191 1.63925 1.15234V4.22559C1.63925 4.65723 1.99225 5.00684 2.42026 5.00684H5.49326C5.92526 5.00684 6.27527 4.65723 6.27527 4.22559C6.27527 3.79395 5.92526 3.44434 5.49326 3.44434H4.01627C5.00427 2.49072 6.33926 1.93359 7.74426 1.93359H13.8903C16.8483 1.93359 19.2552 4.34033 19.2552 7.29834V13.4443C19.2552 16.4023 16.8483 18.8086 13.8903 18.8086H7.74426C4.78625 18.8086 2.37927 16.4023 2.37927 13.4443V10.3711C2.37927 9.93994 2.03027 9.59033 1.59827 9.59033C1.16727 9.59033 0.817261 9.93994 0.817261 10.3711V13.4443C0.817261 17.2637 3.92426 20.3711 7.74426 20.3711H13.8903C17.7103 20.3711 20.8173 17.2637 20.8173 13.4443V7.29834C20.8173 3.479 17.7103 0.371094 13.8903 0.371094Z" fill="#919295"/>
</svg> -->

<svg width="23" height="20" viewBox="0 0 23 20" fill="none" xmlns="http://www.w3.org/2000/svg">
<g clip-path="url(#clip0_484_8)">
<path d="M11.4272 5.71436L11.4251 10.7116C11.4251 10.9014 11.5004 11.0827 11.6344 11.2166L15.2093 14.7908L16.2194 13.7808L12.8536 10.4158L12.8557 5.71436H11.4272Z" fill="#919295"/>
<path d="M12.8571 0C7.82936 0 3.66822 3.73396 2.97131 8.57143H0L3.57142 12.1429L7.14285 8.57143H4.41474C5.0981 4.52411 8.61826 1.42859 12.8571 1.42859C17.5837 1.42859 21.4286 5.27344 21.4286 10C21.4286 14.7266 17.5837 18.5715 12.8571 18.5715C10.2002 18.5715 7.7365 17.3689 6.09793 15.2721L4.9721 16.151C6.88335 18.5966 9.75723 20 12.8571 20C18.3713 20 22.8571 15.5134 22.8571 10C22.8571 4.48665 18.3713 4.15e-05 12.8571 0Z" fill="#919295"/>
</g>
<defs>
<clipPath id="clip0_484_8">
<rect width="22.8571" height="20" fill="white"/>
</clipPath>
</defs>
</svg>


