<svg width="21" height="21" viewBox="0 0 21 21" fill="none" xmlns="http://www.w3.org/2000/svg">
<path d="M19.7892 0.45874C19.4642 0.133545 18.9362 0.133545 18.6102 0.45874L12.5332 6.53638V2.7146C12.5332 2.25464 12.1602 1.88159 11.7002 1.88159C11.2391 1.88159 10.8662 2.25464 10.8662 2.7146V8.5481C10.8662 8.54858 10.8662 8.54858 10.8662 8.54907C10.8662 8.57593 10.8682 8.60327 10.8712 8.63013C10.8722 8.64282 10.8741 8.65503 10.8762 8.66724C10.8782 8.68188 10.8801 8.69653 10.8832 8.71069C10.8851 8.72485 10.8892 8.73853 10.8932 8.7522C10.8962 8.76489 10.8992 8.77759 10.9022 8.78979C10.9061 8.80347 10.9111 8.81665 10.9161 8.82983C10.9211 8.84204 10.9252 8.85474 10.9302 8.86694C10.9352 8.87915 10.9412 8.89136 10.9471 8.90308C10.9532 8.91577 10.9581 8.92847 10.9652 8.94116C10.9712 8.95239 10.9781 8.96313 10.9852 8.97437C10.9922 8.98657 10.9991 8.99927 11.0072 9.01099C11.0151 9.02319 11.0242 9.03491 11.0332 9.04663C11.0402 9.0564 11.0472 9.06665 11.0552 9.07642C11.0902 9.1189 11.1292 9.15796 11.1722 9.19263C11.1812 9.20044 11.1912 9.20728 11.2012 9.2146C11.2131 9.22388 11.2252 9.23267 11.2372 9.24097C11.2491 9.24927 11.2612 9.2561 11.2732 9.26294C11.2842 9.26978 11.2952 9.27661 11.3071 9.28296C11.3192 9.28979 11.3322 9.29517 11.3452 9.30103C11.3572 9.30688 11.3691 9.31274 11.3812 9.31812C11.3932 9.323 11.4061 9.3269 11.4182 9.33179C11.4312 9.33618 11.4442 9.34155 11.4581 9.34546C11.4702 9.34937 11.4832 9.35181 11.4952 9.35522C11.5092 9.35864 11.5232 9.36255 11.5372 9.36548C11.5511 9.36841 11.5662 9.36987 11.5812 9.37183C11.5931 9.37378 11.6052 9.37622 11.6172 9.3772C11.6451 9.38013 11.6722 9.38159 11.6992 9.38159C11.6992 9.38159 11.6992 9.38159 11.7002 9.38159H17.5332C17.9932 9.38159 18.3662 9.00854 18.3662 8.5481C18.3662 8.08813 17.9932 7.7146 17.5332 7.7146H13.7122L19.7892 1.63745C20.1141 1.31177 20.1141 0.784424 19.7892 0.45874Z" fill="#7F93A0"/>
<path d="M9.1962 11.7988C9.19424 11.7866 9.19217 11.7744 9.19022 11.7622C9.18826 11.7476 9.18619 11.7329 9.18423 11.7183C9.18118 11.7046 9.17728 11.6909 9.17325 11.6768C9.1702 11.6646 9.16824 11.6519 9.16422 11.6392C9.16019 11.626 9.15518 11.6128 9.15018 11.5996C9.14517 11.5874 9.14127 11.5747 9.13626 11.5625C9.13126 11.5503 9.12527 11.5381 9.11917 11.5264C9.11319 11.5137 9.10818 11.501 9.10123 11.4883C9.09525 11.4771 9.08817 11.4658 9.08121 11.4551C9.07425 11.4429 9.06717 11.4302 9.05923 11.4185C9.05118 11.4063 9.04227 11.3945 9.03323 11.3828C9.02628 11.373 9.0192 11.3628 9.01126 11.353C8.97623 11.3105 8.93716 11.2715 8.8942 11.2368C8.88516 11.229 8.87527 11.2222 8.86526 11.2144C8.85318 11.2056 8.84122 11.1963 8.82925 11.1885C8.81717 11.1802 8.80521 11.1733 8.79324 11.1665C8.78226 11.1597 8.77127 11.1528 8.75919 11.1465C8.74722 11.1396 8.73416 11.1343 8.72122 11.1284C8.70926 11.1226 8.69827 11.1167 8.68521 11.1113C8.67325 11.1064 8.66019 11.1021 8.64822 11.0977C8.63516 11.0928 8.62222 11.0879 8.60818 11.084C8.59622 11.0801 8.58316 11.0776 8.5712 11.0742C8.55716 11.0708 8.54324 11.0669 8.52921 11.064C8.51517 11.061 8.50027 11.0596 8.48526 11.0576C8.47318 11.0557 8.46121 11.0532 8.44925 11.0522C8.42117 11.0493 8.3942 11.0479 8.36624 11.0479H2.53323C2.07327 11.0479 1.70023 11.4209 1.70023 11.8813C1.70023 12.3413 2.07327 12.7144 2.53323 12.7144H6.35428L0.277252 18.792C-0.047821 19.1172 -0.047821 19.645 0.277252 19.9707C0.60318 20.2959 1.13016 20.2959 1.45621 19.9707L7.53323 13.8931V17.7144C7.53323 18.1748 7.90616 18.5479 8.36624 18.5479C8.82718 18.5479 9.20023 18.1748 9.20023 17.7144V11.8813C9.20023 11.854 9.19827 11.8262 9.1962 11.7988Z" fill="#7F93A0"/>
</svg>
