<svg width="20" height="20" viewBox="0 0 20 20" fill="none" xmlns="http://www.w3.org/2000/svg">
  <path d="M19.7559 0.244042C19.4305 -0.081388 18.9028 -0.081388 18.5774 0.244042L12.5 6.32146V2.49998C12.5 2.03974 12.1269 1.66666 11.6667 1.66666C11.2064 1.66666 10.8333 2.03974 10.8333 2.49998V8.3333C10.8333 8.33357 10.8334 8.33389 10.8334 8.33416C10.8334 8.36131 10.8348 8.38846 10.8375 8.41553C10.8387 8.42795 10.841 8.44002 10.8428 8.45224C10.8449 8.46689 10.8466 8.48154 10.8495 8.49607C10.8522 8.5101 10.8561 8.52373 10.8596 8.53752C10.8628 8.5501 10.8655 8.56271 10.8693 8.57517C10.8734 8.58869 10.8784 8.60174 10.8832 8.61494C10.8876 8.62736 10.8917 8.6399 10.8968 8.65217C10.9019 8.66451 10.9079 8.67631 10.9136 8.68834C10.9196 8.70096 10.9252 8.71369 10.9318 8.72607C10.938 8.7376 10.945 8.74853 10.9517 8.75971C10.9589 8.77185 10.9658 8.78416 10.9737 8.79599C10.9819 8.80834 10.9912 8.81994 11 8.83181C11.0074 8.8417 11.0143 8.85185 11.0222 8.86146C11.0571 8.90392 11.096 8.94291 11.1385 8.97775C11.1481 8.98564 11.1583 8.99252 11.1681 8.99994C11.18 9.00885 11.1916 9.01803 11.204 9.02627C11.2158 9.0342 11.2281 9.04107 11.2403 9.0483C11.2514 9.05498 11.2624 9.06201 11.2739 9.06818C11.2863 9.07478 11.299 9.08041 11.3116 9.08635C11.3237 9.09201 11.3355 9.09803 11.3478 9.10314C11.3601 9.10822 11.3726 9.11232 11.385 9.11678C11.3982 9.12154 11.4113 9.12658 11.4248 9.13068C11.4372 9.13443 11.4499 9.13721 11.4624 9.14037C11.4762 9.14385 11.4898 9.14771 11.5039 9.15049C11.5184 9.15338 11.5331 9.1551 11.5477 9.15717C11.56 9.15892 11.572 9.16123 11.5844 9.16248C11.6115 9.16514 11.6387 9.16658 11.6658 9.16658C11.6661 9.16658 11.6664 9.16662 11.6667 9.16662H17.5C17.9602 9.16662 18.3333 8.79353 18.3333 8.3333C18.3333 7.87306 17.9602 7.49998 17.5 7.49998H13.6785L19.7559 1.42256C20.0814 1.09713 20.0814 0.56951 19.7559 0.244042Z" fill="black"/>
  <path d="M9.16248 11.5844C9.16127 11.572 9.15892 11.5599 9.15717 11.5477C9.15506 11.5331 9.15334 11.5184 9.15049 11.5039C9.14771 11.4899 9.14385 11.4762 9.14037 11.4624C9.13721 11.4499 9.13447 11.4373 9.13068 11.4248C9.12658 11.4113 9.12154 11.3982 9.11678 11.385C9.11232 11.3726 9.10822 11.3601 9.10314 11.3478C9.09803 11.3355 9.09205 11.3237 9.08635 11.3116C9.08041 11.299 9.07478 11.2863 9.06818 11.2739C9.06201 11.2624 9.05498 11.2514 9.0483 11.2403C9.04103 11.2281 9.0342 11.2158 9.02627 11.204C9.01803 11.1916 9.00881 11.18 8.99994 11.1681C8.99252 11.1583 8.98568 11.1481 8.97775 11.1385C8.94291 11.096 8.90396 11.0571 8.86146 11.0222C8.85185 11.0143 8.8417 11.0074 8.83181 11C8.81994 10.9911 8.80834 10.9819 8.79599 10.9737C8.78416 10.9658 8.77185 10.9589 8.75971 10.9517C8.74853 10.945 8.7376 10.938 8.72607 10.9318C8.71369 10.9252 8.70096 10.9196 8.68834 10.9136C8.67631 10.908 8.66447 10.9019 8.65217 10.8968C8.6399 10.8917 8.62736 10.8876 8.61494 10.8832C8.60174 10.8784 8.58869 10.8734 8.57517 10.8693C8.56275 10.8655 8.5501 10.8628 8.53752 10.8596C8.52373 10.8561 8.51014 10.8522 8.49607 10.8495C8.48154 10.8466 8.46685 10.8449 8.45224 10.8428C8.43998 10.841 8.42795 10.8387 8.41553 10.8375C8.38818 10.8348 8.36076 10.8333 8.3333 10.8333H2.49998C2.03974 10.8333 1.66666 11.2064 1.66666 11.6667C1.66666 12.1269 2.03974 12.5 2.49998 12.5H6.32146L0.244042 18.5774C-0.081388 18.9028 -0.081388 19.4305 0.244042 19.7559C0.569471 20.0814 1.09713 20.0814 1.42256 19.7559L7.49998 13.6785V17.5C7.49998 17.9602 7.87306 18.3333 8.3333 18.3333C8.79353 18.3333 9.16662 17.9602 9.16662 17.5V11.6667C9.16666 11.6392 9.16517 11.6118 9.16248 11.5844Z" fill="black"/>
</svg>
