<svg width="21" height="21" viewBox="0 0 21 21" fill="none" xmlns="http://www.w3.org/2000/svg">
<path d="M20.5733 0.61499C20.2483 0.289795 19.7203 0.289795 19.3943 0.61499L13.3173 6.69263V2.87085C13.3173 2.41089 12.9443 2.03784 12.4843 2.03784C12.0233 2.03784 11.6503 2.41089 11.6503 2.87085V8.70435C11.6503 8.70483 11.6503 8.70483 11.6503 8.70532C11.6503 8.73218 11.6523 8.75952 11.6543 8.78638C11.6562 8.79907 11.6583 8.81128 11.6602 8.82349C11.6623 8.83813 11.6642 8.85278 11.6663 8.86694C11.6693 8.8811 11.6732 8.89478 11.6772 8.90845C11.6803 8.92114 11.6833 8.93384 11.6862 8.94604C11.6902 8.95972 11.6953 8.9729 11.7003 8.98608C11.7053 8.99829 11.7093 9.01099 11.7143 9.02319C11.7193 9.0354 11.7253 9.04712 11.7313 9.05933C11.7373 9.07202 11.7422 9.08472 11.7493 9.09692C11.7552 9.10864 11.7623 9.11938 11.7693 9.13062C11.7763 9.14282 11.7833 9.15503 11.7913 9.16724C11.7993 9.17944 11.8083 9.19116 11.8173 9.20288C11.8242 9.21265 11.8313 9.2229 11.8393 9.23267C11.8743 9.27515 11.9133 9.31372 11.9563 9.34888C11.9653 9.35669 11.9753 9.36353 11.9853 9.37085C11.9973 9.37964 12.0092 9.38892 12.0213 9.39722C12.0333 9.40503 12.0453 9.41235 12.0573 9.41919C12.0683 9.42603 12.0793 9.43286 12.0912 9.43921C12.1033 9.44604 12.1163 9.45142 12.1293 9.45728C12.1413 9.46313 12.1533 9.46899 12.1653 9.47437C12.1772 9.47925 12.1902 9.48315 12.2023 9.48804C12.2153 9.49243 12.2283 9.4978 12.2422 9.50171C12.2543 9.50562 12.2673 9.50806 12.2793 9.51147C12.2933 9.51489 12.3073 9.5188 12.3213 9.52173C12.3353 9.52466 12.3503 9.52612 12.3653 9.52808C12.3773 9.53003 12.3893 9.53247 12.4013 9.53345C12.4293 9.53638 12.4563 9.53784 12.4832 9.53784C12.4832 9.53784 12.4832 9.53784 12.4843 9.53784H18.3173C18.7773 9.53784 19.1503 9.16479 19.1503 8.70435C19.1503 8.24438 18.7773 7.87085 18.3173 7.87085H14.4962L20.5733 1.7937C20.8983 1.46802 20.8983 0.940674 20.5733 0.61499Z" fill="#919295"/>
<path d="M9.97924 11.9556C9.97826 11.9434 9.97625 11.9312 9.97427 11.9189C9.97225 11.9043 9.97027 11.8896 9.96825 11.875C9.96526 11.8613 9.96127 11.8477 9.95727 11.8335C9.95425 11.8213 9.95126 11.8086 9.94827 11.7959C9.94427 11.7827 9.93926 11.7695 9.93426 11.7563C9.92925 11.7441 9.92525 11.7314 9.92025 11.7192C9.91525 11.707 9.90926 11.6948 9.90325 11.6831C9.89724 11.6704 9.89227 11.6577 9.88525 11.645C9.87926 11.6338 9.87225 11.6226 9.86526 11.6118C9.85824 11.5996 9.85125 11.5869 9.84325 11.5752C9.83526 11.563 9.82626 11.5513 9.81725 11.5396C9.81026 11.5298 9.80325 11.5195 9.79525 11.5098C9.76025 11.4673 9.72124 11.4282 9.67825 11.3936C9.66924 11.3857 9.65926 11.3789 9.64925 11.3711C9.63726 11.3623 9.62527 11.353 9.61324 11.3452C9.60125 11.3369 9.58926 11.3301 9.57726 11.3232C9.56625 11.3164 9.55526 11.3091 9.54327 11.3032C9.53124 11.2964 9.51824 11.291 9.50524 11.2847C9.49325 11.2793 9.48125 11.2734 9.46926 11.2681C9.45727 11.2632 9.44427 11.2588 9.43224 11.2544C9.41924 11.2495 9.40624 11.2446 9.39227 11.2407C9.38024 11.2368 9.36724 11.2339 9.35525 11.231C9.34124 11.2275 9.32726 11.2236 9.31326 11.2207C9.29925 11.2178 9.28426 11.2163 9.26925 11.2139C9.25726 11.2124 9.24526 11.21 9.23324 11.209C9.20525 11.2061 9.17825 11.2046 9.15026 11.2046H3.31725C2.85726 11.2046 2.48425 11.5776 2.48425 12.0381C2.48425 12.498 2.85726 12.8711 3.31725 12.8711H7.13827L1.06124 18.9487C0.736259 19.2739 0.736259 19.8018 1.06124 20.1274C1.38625 20.4526 1.91424 20.4526 2.24026 20.1274L8.31725 14.0498V17.8711C8.31725 18.3315 8.69024 18.7046 9.15026 18.7046C9.61126 18.7046 9.98425 18.3315 9.98425 17.8711V12.0381C9.98425 12.0107 9.98226 11.9829 9.97924 11.9556Z" fill="#919295"/>
</svg>
