<!-- <svg width="25" height="25" viewBox="0 0 25 25" fill="none" xmlns="http://www.w3.org/2000/svg">
<path d="M12.6118 0.271484C19.2391 0.271484 24.6118 5.64404 24.6118 12.2715C24.6118 18.8989 19.2391 24.2715 12.6118 24.2715C5.98431 24.2715 0.611755 18.8989 0.611755 12.2715C0.611755 5.64404 5.98431 0.271484 12.6118 0.271484Z" fill="#CC7FBB"/>
<path d="M13.5277 12.2815L17.4217 8.38843C17.6747 8.13452 17.6747 7.72559 17.4217 7.47144C17.1687 7.21851 16.7587 7.21851 16.5057 7.47144L12.6117 11.3655L8.7177 7.47144C8.46471 7.21851 8.05473 7.21851 7.80174 7.47144C7.54875 7.72559 7.54875 8.13452 7.80174 8.38843L11.6957 12.2815L7.80174 16.1755C7.54875 16.4294 7.54875 16.8384 7.80174 17.0916C7.92772 17.2185 8.09373 17.2815 8.25975 17.2815C8.4257 17.2815 8.59172 17.2185 8.7177 17.0916L12.6117 13.1985L16.5057 17.0916C16.6317 17.2185 16.7977 17.2815 16.9637 17.2815C17.1297 17.2815 17.2957 17.2185 17.4217 17.0916C17.6747 16.8384 17.6747 16.4294 17.4217 16.1755L13.5277 12.2815Z" fill="white"/>
</svg> -->
<svg width="25" height="25" viewBox="0 0 25 25" fill="none" xmlns="http://www.w3.org/2000/svg">
<path d="M12.2572 0.677979C18.8846 0.677979 24.2572 6.05054 24.2572 12.678C24.2572 19.3052 18.8846 24.678 12.2572 24.678C5.62976 24.678 0.257202 19.3052 0.257202 12.678C0.257202 6.05054 5.62976 0.677979 12.2572 0.677979Z" fill="#EA6CA4"/>
<path d="M13.1731 12.6877L17.0672 8.79486C17.3202 8.54071 17.3202 8.13177 17.0672 7.87787C16.8142 7.62469 16.4042 7.62469 16.1512 7.87787L12.2572 11.7719L8.36314 7.87787C8.11015 7.62469 7.70018 7.62469 7.44719 7.87787C7.1942 8.13177 7.1942 8.54071 7.44719 8.79486L11.3412 12.6877L7.44719 16.5817C7.1942 16.8359 7.1942 17.2448 7.44719 17.4977C7.57317 17.6247 7.73918 17.6877 7.9052 17.6877C8.07115 17.6877 8.23717 17.6247 8.36314 17.4977L12.2572 13.6049L16.1512 17.4977C16.2771 17.6247 16.4432 17.6877 16.6092 17.6877C16.7752 17.6877 16.9411 17.6247 17.0672 17.4977C17.3202 17.2448 17.3202 16.8359 17.0672 16.5817L13.1731 12.6877Z" fill="white"/>
</svg>

