<svg width="25" height="25" viewBox="0 0 25 25" fill="none" xmlns="http://www.w3.org/2000/svg">
<path d="M12.1863 0.804443C18.8137 0.804443 24.1863 6.177 24.1863 12.8044C24.1863 19.4319 18.8137 24.8044 12.1863 24.8044C5.5589 24.8044 0.186279 19.4319 0.186279 12.8044C0.186279 6.177 5.5589 0.804443 12.1863 0.804443Z" fill="#FF4D50"/>
<path d="M13.1023 12.8145L16.9963 8.92139C17.2493 8.66748 17.2493 8.25854 16.9963 8.00439C16.7433 7.75146 16.3333 7.75146 16.0803 8.00439L12.1863 11.8984L8.29228 8.00439C8.03929 7.75146 7.62932 7.75146 7.37627 8.00439C7.12328 8.25854 7.12328 8.66748 7.37627 8.92139L11.2703 12.8145L7.37627 16.7085C7.12328 16.9624 7.12328 17.3713 7.37627 17.6245C7.5023 17.7515 7.66832 17.8145 7.83427 17.8145C8.00029 17.8145 8.16631 17.7515 8.29228 17.6245L12.1863 13.7314L16.0803 17.6245C16.2063 17.7515 16.3723 17.8145 16.5383 17.8145C16.7043 17.8145 16.8703 17.7515 16.9963 17.6245C17.2493 17.3713 17.2493 16.9624 16.9963 16.7085L13.1023 12.8145Z" fill="white"/>
</svg>
