<svg width="17" height="9" viewBox="0 0 17 9" fill="none" xmlns="http://www.w3.org/2000/svg">
<path d="M1.27808 4.97168H14.514L12.3221 7.15381C12.0771 7.39697 12.076 7.79297 12.3191 8.0376C12.5631 8.28223 12.9591 8.2832 13.2031 8.03955L16.4691 4.78955C16.4691 4.78955 16.4691 4.78906 16.4701 4.78906C16.7141 4.54541 16.7141 4.14844 16.4701 3.9043C16.4701 3.90381 16.4691 3.90381 16.4691 3.90381L13.2031 0.65381C12.9591 0.410158 12.5631 0.411134 12.3201 0.655763C12.076 0.900392 12.0771 1.2959 12.3221 1.53955L14.514 3.72168H1.27808C0.933105 3.72168 0.653076 4.00147 0.653076 4.34668C0.653076 4.6919 0.933105 4.97168 1.27808 4.97168Z" fill="#666666"/>
</svg>
