<svg width="17" height="8" viewBox="0 0 17 8" fill="none" xmlns="http://www.w3.org/2000/svg">
<path d="M1.35376 4.66309H14.5898L12.3978 6.84522C12.1528 7.08838 12.1519 7.48438 12.3948 7.72901C12.6388 7.97363 13.0348 7.97461 13.2788 7.73096L16.5448 4.48096C16.5448 4.48096 16.5448 4.48047 16.5458 4.48047C16.7898 4.23682 16.7898 3.83985 16.5458 3.5957L16.5448 3.59522L13.2788 0.345216C13.0348 0.101564 12.6388 0.102541 12.3958 0.34717C12.1519 0.591798 12.1528 0.987795 12.3978 1.23096L14.5898 3.41309H1.35376C1.00879 3.41309 0.72876 3.69287 0.72876 4.03809C0.72876 4.3833 1.00879 4.66309 1.35376 4.66309Z" fill="#666666"/>
</svg>
