<svg width="21" height="21" viewBox="0 0 21 21" fill="none" xmlns="http://www.w3.org/2000/svg">
<path d="M19.869 7.96436L18.4649 7.72607C18.3189 7.25391 18.131 6.79883 17.9009 6.36426L18.7289 5.20703C19.08 4.71387 19.0249 4.04102 18.5949 3.61523L17.3499 2.37012C17.1159 2.13623 16.8069 2.00635 16.477 2.00635C16.218 2.00635 15.9709 2.08594 15.7619 2.23633L14.601 3.06348C14.1499 2.8252 13.6779 2.62891 13.1889 2.48291L12.955 1.0957C12.8539 0.498047 12.3409 0.0639648 11.735 0.0639648H9.97595C9.36993 0.0639648 8.85596 0.498047 8.75595 1.0957L8.51395 2.51611C8.04596 2.6626 7.58994 2.85449 7.15594 3.08838L6.00696 2.26123C5.79794 2.11084 5.54694 2.03174 5.28793 2.03174C4.95795 2.03174 4.64496 2.16113 4.41495 2.39502L3.16595 3.64014C2.73993 4.06641 2.68094 4.73877 3.03195 5.23193L3.86795 6.40576C3.63794 6.84473 3.45395 7.2998 3.31195 7.77197L1.92496 8.00586C1.32794 8.10645 0.892944 8.62012 0.892944 9.22607V10.9849C0.892944 11.5908 1.32794 12.1045 1.92496 12.2051L3.34494 12.4473C3.49194 12.915 3.68393 13.3706 3.91794 13.8052L3.09494 14.9497C2.74396 15.4429 2.79794 16.1152 3.22794 16.5415L4.47394 17.7866C4.70694 18.0205 5.01694 18.1504 5.34695 18.1504C5.60596 18.1504 5.85196 18.0708 6.06094 17.9204L7.23495 17.085C7.65695 17.3062 8.09995 17.4858 8.55493 17.6279L8.78894 19.0317C8.88995 19.6294 9.40295 20.0635 10.0089 20.0635H11.7719C12.3779 20.0635 12.8919 19.6294 12.9919 19.0317L13.231 17.6279C13.7029 17.4814 14.158 17.2935 14.593 17.064L15.7499 17.8911C15.959 18.0415 16.209 18.1211 16.468 18.1211C16.7979 18.1211 17.1079 17.9912 17.3419 17.7573L18.5869 16.5122C19.0129 16.0864 19.071 15.4136 18.7199 14.9204L17.8929 13.7593C18.123 13.3203 18.3149 12.8652 18.4569 12.397L19.8609 12.1631C20.4579 12.063 20.8929 11.5488 20.8929 10.9434V9.18408C20.9009 8.57861 20.4669 8.06445 19.869 7.96436ZM19.7729 10.9434C19.7729 10.9976 19.7359 11.0435 19.6809 11.0518L17.9269 11.3442C17.705 11.3818 17.5299 11.5449 17.4749 11.7578C17.317 12.3721 17.0739 12.9609 16.748 13.5083C16.636 13.7007 16.644 13.939 16.7729 14.1226L17.8049 15.5767C17.8349 15.6182 17.83 15.6812 17.7929 15.7188L16.5479 16.9634C16.519 16.9927 16.489 16.9971 16.468 16.9971C16.4429 16.9971 16.4219 16.9888 16.4059 16.9761L14.9559 15.9443C14.7759 15.8145 14.5339 15.8062 14.3419 15.9189C13.795 16.2451 13.205 16.4873 12.5909 16.646C12.3739 16.7002 12.2109 16.8799 12.1779 17.0972L11.881 18.8521C11.873 18.9062 11.8269 18.9438 11.7719 18.9438H10.0129C9.95895 18.9438 9.91293 18.9062 9.90494 18.8521L9.61194 17.0972C9.57495 16.876 9.41196 16.7002 9.19894 16.646C8.60095 16.4917 8.02493 16.2534 7.48593 15.9443C7.39795 15.894 7.29794 15.8691 7.20193 15.8691C7.08896 15.8691 6.97195 15.9023 6.87595 15.9736L5.41394 17.0137C5.39294 17.0264 5.37195 17.0347 5.35095 17.0347C5.33395 17.0347 5.30093 17.0303 5.27094 17.001L4.02594 15.7563C3.98895 15.7188 3.98495 15.6602 4.01395 15.6143L5.04193 14.1729C5.17096 13.9888 5.17993 13.7466 5.06696 13.5542C4.74094 13.0112 4.48993 12.4224 4.33093 11.8081C4.27295 11.5947 4.09695 11.4321 3.87994 11.3945L2.11295 11.0938C2.05893 11.0854 2.02094 11.0391 2.02094 10.9849V9.22607C2.02094 9.17188 2.05893 9.12598 2.11295 9.11719L3.85495 8.8252C4.07693 8.7876 4.25595 8.62451 4.31094 8.40723C4.46494 7.79297 4.70294 7.19971 5.02493 6.65234C5.13794 6.46045 5.12494 6.22217 4.99594 6.04248L3.95496 4.58008C3.92593 4.53857 3.92993 4.47559 3.96796 4.43799L5.21295 3.19287C5.24194 3.16406 5.27094 3.15967 5.29193 3.15967C5.31696 3.15967 5.33795 3.16797 5.35495 3.18066L6.79596 4.2085C6.97995 4.33789 7.22293 4.34619 7.41495 4.2334C7.95795 3.90723 8.54694 3.65674 9.16095 3.49805C9.37393 3.43945 9.53696 3.26416 9.57495 3.04688L9.87595 1.27979C9.88394 1.2251 9.92993 1.1875 9.98395 1.1875H11.743C11.7969 1.1875 11.843 1.2251 11.852 1.27979L12.144 3.02197C12.1819 3.24316 12.3449 3.42285 12.562 3.47705C13.1929 3.63574 13.795 3.88232 14.3539 4.2124C14.5469 4.3252 14.7849 4.31689 14.9689 4.1875L16.4099 3.15137C16.4309 3.13867 16.4519 3.13037 16.4729 3.13037C16.489 3.13037 16.5229 3.13477 16.5519 3.16357L17.7969 4.40869C17.8349 4.44629 17.839 4.50488 17.8099 4.55078L16.778 6.00049C16.6479 6.18018 16.64 6.42285 16.7529 6.61475C17.0779 7.16211 17.321 7.75098 17.4789 8.36523C17.5339 8.58252 17.713 8.74561 17.9309 8.77881L19.6849 9.07568C19.7399 9.08398 19.7769 9.12988 19.7769 9.18408V10.9434H19.7729Z" fill="#7F93A0"/>
<path d="M10.895 5.74463C8.51398 5.74463 6.57898 7.6792 6.57898 10.0605C6.57898 12.4424 8.51398 14.3765 10.895 14.3765C13.276 14.3765 15.211 12.4424 15.211 10.0605C15.211 7.6792 13.276 5.74463 10.895 5.74463ZM10.895 13.2485C9.13599 13.2485 7.70697 11.8193 7.70697 10.0605C7.70697 8.30176 9.13599 6.87305 10.895 6.87305C12.654 6.87305 14.083 8.30176 14.083 10.0605C14.083 11.8193 12.654 13.2485 10.895 13.2485Z" fill="#7F93A0"/>
</svg>
