<svg width="21" height="21" viewBox="0 0 21 21" fill="none" xmlns="http://www.w3.org/2000/svg">
<path d="M19.7933 8.27295L18.3893 8.03467C18.2433 7.5625 18.0553 7.10742 17.8253 6.67285L18.6533 5.51562C19.0043 5.02246 18.9492 4.34961 18.5193 3.92383L17.2743 2.67871C17.0403 2.44482 16.7313 2.31494 16.4013 2.31494C16.1423 2.31494 15.8953 2.39453 15.6862 2.54492L14.5253 3.37207C14.0742 3.13379 13.6023 2.9375 13.1133 2.7915L12.8793 1.4043C12.7783 0.806641 12.2653 0.37207 11.6593 0.37207H9.90027C9.29425 0.37207 8.78027 0.806641 8.68027 1.4043L8.43826 2.82471C7.97028 2.97119 7.51425 3.16309 7.08026 3.39697L5.93127 2.56982C5.72226 2.41943 5.47125 2.34033 5.21225 2.34033C4.88226 2.34033 4.56927 2.46973 4.33926 2.70361L3.09027 3.94873C2.66425 4.375 2.60526 5.04736 2.95627 5.54053L3.79227 6.71436C3.56226 7.15332 3.37827 7.6084 3.23627 8.08057L1.84927 8.31445C1.25226 8.41504 0.817261 8.92871 0.817261 9.53467V11.2935C0.817261 11.8994 1.25226 12.4131 1.84927 12.5132L3.26926 12.7559C3.41626 13.2236 3.60825 13.6792 3.84225 14.1138L3.01926 15.2583C2.66827 15.7515 2.72226 16.4238 3.15225 16.8501L4.39825 18.0952C4.63126 18.3291 4.94125 18.4585 5.27127 18.4585C5.53027 18.4585 5.77628 18.3794 5.98526 18.229L7.15927 17.3931C7.58127 17.6147 8.02426 17.7944 8.47925 17.9365L8.71326 19.3403C8.81427 19.9375 9.32727 20.3721 9.93326 20.3721H11.6963C12.3022 20.3721 12.8163 19.9375 12.9163 19.3403L13.1553 17.9365C13.6273 17.79 14.0823 17.6021 14.5173 17.3726L15.6743 18.1997C15.8833 18.3501 16.1333 18.4292 16.3923 18.4292C16.7223 18.4292 17.0323 18.2998 17.2663 18.0659L18.5113 16.8208C18.9373 16.395 18.9953 15.7222 18.6443 15.229L17.8173 14.0674C18.0473 13.6289 18.2393 13.1738 18.3813 12.7056L19.7852 12.4717C20.3823 12.3716 20.8173 11.8574 20.8173 11.2515V9.49268C20.8253 8.88721 20.3913 8.37305 19.7933 8.27295ZM19.6973 11.2515C19.6973 11.3062 19.6602 11.3521 19.6053 11.3604L17.8513 11.6528C17.6293 11.6904 17.4543 11.8535 17.3993 12.0664C17.2413 12.6807 16.9983 13.2695 16.6723 13.8169C16.5603 14.0093 16.5683 14.2471 16.6973 14.4312L17.7292 15.8853C17.7592 15.9268 17.7543 15.9897 17.7173 16.0273L16.4723 17.272C16.4433 17.3013 16.4133 17.3057 16.3923 17.3057C16.3672 17.3057 16.3463 17.2974 16.3303 17.2847L14.8802 16.2529C14.7003 16.123 14.4583 16.1147 14.2663 16.2275C13.7193 16.5537 13.1293 16.7959 12.5153 16.9546C12.2982 17.0088 12.1353 17.1885 12.1023 17.4058L11.8053 19.1606C11.7973 19.2148 11.7513 19.2524 11.6963 19.2524H9.93726C9.88327 19.2524 9.83725 19.2148 9.82925 19.1606L9.53625 17.4058C9.49927 17.1846 9.33627 17.0088 9.12326 16.9546C8.52527 16.7998 7.94925 16.562 7.41025 16.2529C7.32227 16.2026 7.22226 16.1777 7.12625 16.1777C7.01328 16.1777 6.89627 16.2109 6.80026 16.2822L5.33826 17.3223C5.31726 17.335 5.29626 17.3433 5.27527 17.3433C5.25827 17.3433 5.22525 17.3389 5.19525 17.3096L3.95026 16.0649C3.91327 16.0273 3.90927 15.9688 3.93826 15.9229L4.96625 14.4814C5.09528 14.2974 5.10425 14.0552 4.99127 13.8628C4.66525 13.3198 4.41425 12.7305 4.25525 12.1167C4.19727 11.9033 4.02127 11.7407 3.80426 11.7031L2.03726 11.4023C1.98325 11.394 1.94525 11.3477 1.94525 11.2935V9.53467C1.94525 9.47998 1.98325 9.43408 2.03726 9.42578L3.77927 9.1333C4.00125 9.0957 4.18027 8.93311 4.23526 8.71582C4.38925 8.10156 4.62726 7.5083 4.94925 6.96094C5.06226 6.76904 5.04926 6.53076 4.92026 6.35107L3.87927 4.88867C3.85025 4.84668 3.85425 4.78418 3.89227 4.74658L5.13727 3.50146C5.16626 3.47217 5.19525 3.46826 5.21625 3.46826C5.24127 3.46826 5.26227 3.47656 5.27927 3.48926L6.72028 4.5166C6.90427 4.64648 7.14725 4.65479 7.33926 4.54199C7.88226 4.21582 8.47125 3.96533 9.08527 3.80664C9.29825 3.74805 9.46127 3.57275 9.49927 3.35547L9.80026 1.58789C9.80826 1.53369 9.85425 1.49609 9.90826 1.49609H11.6673C11.7213 1.49609 11.7673 1.53369 11.7763 1.58789L12.0683 3.33008C12.1063 3.55176 12.2693 3.73145 12.4863 3.78564C13.1172 3.94434 13.7193 4.19092 14.2783 4.521C14.4713 4.63379 14.7093 4.62549 14.8932 4.49609L16.3343 3.45996C16.3553 3.44727 16.3763 3.43896 16.3972 3.43896C16.4133 3.43896 16.4473 3.44287 16.4763 3.47217L17.7213 4.71729C17.7592 4.75488 17.7633 4.81348 17.7343 4.85938L16.7023 6.30908C16.5723 6.48877 16.5643 6.73145 16.6772 6.92334C17.0023 7.4707 17.2453 8.05957 17.4033 8.67383C17.4583 8.89111 17.6373 9.0542 17.8553 9.0874L19.6093 9.38428C19.6642 9.39258 19.7013 9.43848 19.7013 9.49268V11.2515H19.6973Z" fill="#919295"/>
<path d="M10.8193 6.05322C8.43829 6.05322 6.5033 7.98779 6.5033 10.3691C6.5033 12.7505 8.43829 14.6851 10.8193 14.6851C13.2003 14.6851 15.1353 12.7505 15.1353 10.3691C15.1353 7.98779 13.2003 6.05322 10.8193 6.05322ZM10.8193 13.5571C9.0603 13.5571 7.63129 12.1279 7.63129 10.3691C7.63129 8.61035 9.0603 7.18164 10.8193 7.18164C12.5783 7.18164 14.0073 8.61035 14.0073 10.3691C14.0073 12.1279 12.5783 13.5571 10.8193 13.5571Z" fill="#919295"/>
</svg>

