<svg width="21" height="20" viewBox="0 0 21 20" fill="none" xmlns="http://www.w3.org/2000/svg">
<path fill-rule="evenodd" clip-rule="evenodd" d="M20.5743 8.57874C20.9653 8.18811 20.9653 7.55481 20.5743 7.16418L14.5743 1.16418C14.1843 0.774048 13.5513 0.774048 13.1603 1.16418C12.7703 1.55481 12.7703 2.18811 13.1603 2.57874L17.4533 6.87122H1.81728C1.26528 6.87122 0.817278 7.31897 0.817278 7.87122C0.817278 8.42395 1.26528 8.87122 1.81728 8.87122H19.8173C20.1023 8.87122 20.3693 8.78381 20.5743 8.57874ZM20.7673 12.8712C20.7673 13.424 20.3193 13.8712 19.7673 13.8712H4.18128L8.47428 18.1642C8.86427 18.5548 8.86427 19.1881 8.47428 19.5787C8.08328 19.9689 7.45027 19.9689 7.06027 19.5787L1.06027 13.5787C0.774279 13.2926 0.68828 12.8624 0.843279 12.4889C0.998278 12.1149 1.36228 11.8712 1.76727 11.8712H19.7673C20.3193 11.8712 20.7673 12.319 20.7673 12.8712Z" fill="#919295"/>
</svg>
