<svg width="21" height="20" viewBox="0 0 21 20" fill="none" xmlns="http://www.w3.org/2000/svg">
<path fill-rule="evenodd" clip-rule="evenodd" d="M20.65 8.27014C21.041 7.87952 21.041 7.24622 20.65 6.85559L14.65 0.855591C14.26 0.465454 13.627 0.465454 13.236 0.855591C12.846 1.24622 12.846 1.87952 13.236 2.27014L17.529 6.56311H1.89296C1.34096 6.56311 0.892961 7.01038 0.892961 7.56311C0.892961 8.11536 1.34096 8.56311 1.89296 8.56311H19.893C20.178 8.56311 20.445 8.47522 20.65 8.27014ZM20.843 12.5631C20.843 13.1154 20.395 13.5631 19.843 13.5631H4.25696L8.54996 17.8556C8.93996 18.2462 8.93996 18.8795 8.54996 19.2701C8.15897 19.6603 7.52596 19.6603 7.13596 19.2701L1.13596 13.2701C0.849962 12.984 0.763964 12.5538 0.918962 12.1803C1.07396 11.8063 1.43796 11.5631 1.84296 11.5631H19.843C20.395 11.5631 20.843 12.0104 20.843 12.5631Z" fill="#7F93A0"/>
</svg>
