<svg width="24" height="24" viewBox="0 0 24 24" fill="none" xmlns="http://www.w3.org/2000/svg"> 
  <path fill-rule="evenodd" clip-rule="evenodd" d="M21.7574 10.2071C22.1479 9.81658 22.1479 9.18342 21.7574 8.79289L15.7574 2.79289C15.3668 2.40237 14.7337 2.40237 14.3432 2.79289C13.9526 3.18342 13.9526 3.81658 14.3432 4.20711L18.636 8.5L3.00001 8.5C2.44772 8.5 2.00001 8.94771 2.00001 9.5C2.00001 10.0523 2.44772 10.5 3.00001 10.5L21 10.5C21.2852 10.5 21.5523 10.4122 21.7574 10.2071ZM21.9498 14.5C21.9498 15.0523 21.502 15.5 20.9498 15.5L5.36397 15.5L9.65686 19.7929C10.0474 20.1834 10.0474 20.8166 9.65686 21.2071C9.26634 21.5976 8.63317 21.5976 8.24265 21.2071L2.24265 15.2071C1.95665 14.9211 1.8711 14.491 2.02588 14.1173C2.18066 13.7436 2.5453 13.5 2.94976 13.5L20.9498 13.5C21.502 13.5 21.9498 13.9477 21.9498 14.5Z" fill="black"/>
</svg>
