<svg width="18" height="16" viewBox="0 0 18 16" fill="none" xmlns="http://www.w3.org/2000/svg">
<path d="M8.89294 0.562988C7.26593 0.562988 5.93594 1.59668 5.08093 2.48193C4.63995 2.93896 4.28995 3.39258 4.05093 3.73096C3.99695 3.80664 3.94794 3.87793 3.90594 3.94189H2.14294C1.31494 3.94189 0.642944 4.61377 0.642944 5.44189V10.6279C0.642944 11.4556 1.31494 12.1279 2.14294 12.1279H3.90195C3.94495 12.1929 3.99295 12.2646 4.04694 12.3428C4.28595 12.6855 4.63596 13.1479 5.07693 13.6118C5.92993 14.5088 7.26096 15.563 8.89294 15.563C9.30695 15.563 9.64294 15.2266 9.64294 14.813V1.31299C9.64294 0.898926 9.30695 0.562988 8.89294 0.562988Z" fill="#62737B"/>
<path fill-rule="evenodd" clip-rule="evenodd" d="M11.334 4.1879C11.609 3.8798 12.084 3.85245 12.393 4.12882C12.666 4.37247 12.913 4.64591 13.13 4.94279C13.767 5.81486 14.143 6.89591 14.143 8.0629C14.143 9.21964 13.774 10.2929 13.147 11.1606C12.926 11.4667 12.673 11.7465 12.393 11.9965C12.084 12.2729 11.609 12.2465 11.334 11.9379C11.058 11.6288 11.084 11.1537 11.393 10.8788C11.593 10.7006 11.773 10.5009 11.931 10.2817C12.378 9.66349 12.643 8.89689 12.643 8.0629C12.643 7.22159 12.373 6.44865 11.919 5.82658C11.764 5.61466 11.588 5.42081 11.393 5.2465C11.084 4.97159 11.058 4.4965 11.334 4.1879Z" fill="#62737B"/>
<path fill-rule="evenodd" clip-rule="evenodd" d="M12.195 1.28585C12.413 0.93282 12.875 0.823933 13.228 1.0422C15.576 2.49483 17.143 5.09591 17.143 8.06319C17.143 11.0769 15.526 13.7131 13.116 15.1521C12.76 15.364 12.3 15.2478 12.087 14.8918C11.875 14.5358 11.991 14.0759 12.347 13.864C14.323 12.6838 15.643 10.528 15.643 8.06319C15.643 5.63692 14.363 3.50899 12.439 2.31807C12.086 2.09981 11.977 1.6379 12.195 1.28585Z" fill="#62737B"/>
</svg>
