<svg width="18" height="16" viewBox="0 0 18 16" fill="none" xmlns="http://www.w3.org/2000/svg">
<path d="M8.81726 0.871094C7.19025 0.871094 5.86026 1.90527 5.00525 2.79053C4.56427 3.24707 4.21426 3.70117 3.97525 4.03906C3.92126 4.11523 3.87225 4.18652 3.83026 4.25049H2.06726C1.23926 4.25049 0.567261 4.92236 0.567261 5.75049V10.9365C0.567261 11.7642 1.23926 12.4365 2.06726 12.4365H3.82626C3.86926 12.5015 3.91727 12.5732 3.97125 12.6514C4.21027 12.9941 4.56027 13.4561 5.00125 13.9204C5.85425 14.8174 7.18527 15.8711 8.81726 15.8711C9.23126 15.8711 9.56726 15.5352 9.56726 15.1211V1.62109C9.56726 1.20752 9.23126 0.871094 8.81726 0.871094Z" fill="#919295"/>
<path fill-rule="evenodd" clip-rule="evenodd" d="M11.2583 4.49606C11.5333 4.18844 12.0083 4.1611 12.3173 4.43746C12.5903 4.68112 12.8373 4.95407 13.0543 5.25143C13.6913 6.1235 14.0673 7.20407 14.0673 8.37106C14.0673 9.52828 13.6983 10.601 13.0713 11.4692C12.8503 11.7754 12.5973 12.0551 12.3173 12.3051C12.0083 12.581 11.5333 12.5551 11.2583 12.2461C10.9823 11.9375 11.0083 11.4624 11.3173 11.1875C11.5173 11.0092 11.6973 10.809 11.8553 10.5903C12.3023 9.97213 12.5673 9.20504 12.5673 8.37106C12.5673 7.53024 12.2973 6.75729 11.8433 6.13522C11.6883 5.9233 11.5123 5.72946 11.3173 5.55514C11.0083 5.28024 10.9823 4.80514 11.2583 4.49606Z" fill="#919295"/>
<path fill-rule="evenodd" clip-rule="evenodd" d="M12.1192 1.59409C12.3372 1.24106 12.7992 1.13217 13.1522 1.34995C15.5002 2.80307 17.0672 5.40415 17.0672 8.37094C17.0672 11.3851 15.4502 14.0213 13.0402 15.4603C12.6842 15.6722 12.2242 15.556 12.0112 15.2C11.7992 14.8441 11.9152 14.3841 12.2712 14.1722C14.2472 12.992 15.5672 10.8363 15.5672 8.37094C15.5672 5.94516 14.2872 3.81723 12.3632 2.62631C12.0102 2.40805 11.9012 1.94614 12.1192 1.59409Z" fill="#919295"/>
</svg>
