<svg width="18" height="16" viewBox="0 0 18 16" fill="none" xmlns="http://www.w3.org/2000/svg">
<path d="M9 0.104492C7.37299 0.104492 6.043 1.13843 5.18799 2.02344C4.74701 2.48047 4.397 2.93457 4.15799 3.27246C4.104 3.34863 4.05499 3.41943 4.013 3.48364H2.25C1.422 3.48364 0.75 4.15552 0.75 4.98364V10.1694C0.75 10.9976 1.422 11.6694 2.25 11.6694H4.009C4.052 11.7346 4.10001 11.8066 4.15399 11.8845C4.39301 12.2275 4.74301 12.6895 5.18399 13.1536C6.03699 14.0505 7.36801 15.1045 9 15.1045C9.414 15.1045 9.75 14.7686 9.75 14.3545V0.854492C9.75 0.44043 9.414 0.104492 9 0.104492Z" fill="#FF4D50"/>
<path fill-rule="evenodd" clip-rule="evenodd" d="M11.441 3.72913C11.716 3.42127 12.191 3.39417 12.5 3.67005C12.773 3.91419 13.02 4.18714 13.237 4.48425C13.874 5.35608 14.25 6.43714 14.25 7.60413C14.25 8.76111 13.881 9.83411 13.254 10.7023C13.033 11.0082 12.78 11.2882 12.5 11.5382C12.191 11.8141 11.716 11.7882 11.441 11.4791C11.165 11.17 11.191 10.6952 11.5 10.42C11.7 10.2421 11.88 10.0421 12.038 9.82312C12.485 9.2052 12.75 8.43811 12.75 7.60413C12.75 6.76306 12.48 5.99011 12.026 5.36829C11.871 5.15613 11.695 4.96228 11.5 4.78821C11.191 4.51306 11.165 4.03821 11.441 3.72913Z" fill="#FF4D50"/>
<path fill-rule="evenodd" clip-rule="evenodd" d="M12.302 0.827594C12.52 0.474567 12.982 0.365436 13.335 0.583454C15.683 2.03658 17.25 4.63741 17.25 7.60445C17.25 10.6186 15.633 13.2546 13.223 14.6936C12.867 14.9055 12.407 14.7895 12.194 14.4336C11.982 14.0776 12.098 13.6174 12.454 13.4055C14.43 12.2255 15.75 10.0695 15.75 7.60445C15.75 5.17842 14.47 3.05049 12.546 1.85958C12.193 1.64156 12.084 1.1794 12.302 0.827594Z" fill="#FF4D50"/>
</svg>
