<svg width="17" height="16" viewBox="0 0 17 16" fill="none" xmlns="http://www.w3.org/2000/svg">
<path d="M8.42542 0.571533C6.7984 0.571533 5.46841 1.60547 4.6134 2.49048C4.17242 2.94751 3.82242 3.40161 3.5834 3.7395C3.52942 3.81567 3.48041 3.88647 3.43842 3.95044H1.67542C0.847412 3.95044 0.175415 4.62256 0.175415 5.45044V10.6365C0.175415 11.4646 0.847412 12.1365 1.67542 12.1365H3.43442C3.47742 12.2017 3.52542 12.2734 3.57941 12.3516C3.81842 12.6946 4.16843 13.1565 4.60941 13.6206C5.4624 14.5176 6.79343 15.5715 8.42542 15.5715C8.83942 15.5715 9.17542 15.2356 9.17542 14.8215V1.32153C9.17542 0.907471 8.83942 0.571533 8.42542 0.571533Z" fill="#FBBC4A"/>
<path fill-rule="evenodd" clip-rule="evenodd" d="M10.8664 4.19641C11.1414 3.88855 11.6164 3.86145 11.9254 4.13733C12.1984 4.38147 12.4454 4.65442 12.6624 4.95154C13.2994 5.82337 13.6754 6.90442 13.6754 8.07141C13.6754 9.22839 13.3065 10.3014 12.6794 11.1696C12.4584 11.4755 12.2054 11.7555 11.9254 12.0055C11.6164 12.2814 11.1414 12.2555 10.8664 11.9464C10.5904 11.6373 10.6164 11.1625 10.9254 10.8873C11.1255 10.7094 11.3054 10.5094 11.4634 10.2904C11.9104 9.67249 12.1754 8.9054 12.1754 8.07141C12.1754 7.23035 11.9054 6.4574 11.4514 5.83533C11.2964 5.62341 11.1204 5.42932 10.9254 5.25549C10.6164 4.98035 10.5904 4.50549 10.8664 4.19641Z" fill="#FBBC4A"/>
<path fill-rule="evenodd" clip-rule="evenodd" d="M11.7274 1.29464C11.9454 0.941608 12.4074 0.832477 12.7604 1.05049C15.1085 2.50362 16.6754 5.10445 16.6754 8.07149C16.6754 11.0854 15.0584 13.7214 12.6484 15.1606C12.2924 15.3725 11.8325 15.2565 11.6194 14.9006C11.4074 14.5446 11.5234 14.0844 11.8795 13.8725C13.8554 12.6926 15.1754 10.5366 15.1754 8.07149C15.1754 5.64547 13.8954 3.51754 11.9714 2.32662C11.6184 2.1086 11.5095 1.64644 11.7274 1.29464Z" fill="#FBBC4A"/>
</svg>
