<svg width="17" height="16" viewBox="0 0 17 16" fill="none" xmlns="http://www.w3.org/2000/svg">
<path d="M8.68054 0.677979C7.05353 0.677979 5.72354 1.71191 4.86853 2.59692C4.42755 3.05396 4.07755 3.50793 3.83853 3.84595C3.78455 3.92188 3.73553 3.99292 3.69354 4.05688H1.93054C1.10254 4.05688 0.430542 4.72888 0.430542 5.55688V10.7429C0.430542 11.5709 1.10254 12.2429 1.93054 12.2429H3.68954C3.73254 12.308 3.78055 12.3799 3.83453 12.4579C4.07355 12.8009 4.42355 13.2629 4.86453 13.7269C5.71753 14.6239 7.04855 15.678 8.68054 15.678C9.09454 15.678 9.43054 15.3419 9.43054 14.928V1.42798C9.43054 1.01392 9.09454 0.677979 8.68054 0.677979Z" fill="#5E4FA2"/>
<path fill-rule="evenodd" clip-rule="evenodd" d="M11.1215 4.30299C11.3965 3.99489 11.8715 3.96791 12.1805 4.24391C12.4535 4.48793 12.7005 4.76088 12.9175 5.058C13.5545 5.92994 13.9305 7.01088 13.9305 8.17799C13.9305 9.33497 13.5615 10.408 12.9345 11.2759C12.7135 11.5819 12.4605 11.862 12.1805 12.112C11.8715 12.388 11.3965 12.362 11.1215 12.053C10.8455 11.7439 10.8715 11.2689 11.1805 10.9939C11.3805 10.8159 11.5605 10.616 11.7185 10.397C12.1655 9.77894 12.4305 9.01198 12.4305 8.17799C12.4305 7.33693 12.1605 6.56398 11.7065 5.94191C11.5515 5.72999 11.3755 5.5359 11.1805 5.36195C10.8715 5.08693 10.8455 4.61195 11.1215 4.30299Z" fill="#5E4FA2"/>
<path fill-rule="evenodd" clip-rule="evenodd" d="M11.9825 1.40088C12.2005 1.04797 12.6625 0.938962 13.0155 1.15698C15.3635 2.60998 16.9305 5.21093 16.9305 8.17798C16.9305 11.1919 15.3135 13.8279 12.9035 15.267C12.5475 15.4789 12.0875 15.3629 11.8745 15.007C11.6625 14.6509 11.7785 14.1909 12.1345 13.9789C14.1105 12.7989 15.4305 10.6429 15.4305 8.17798C15.4305 5.75195 14.1505 3.6239 12.2265 2.43298C11.8735 2.21496 11.7645 1.75293 11.9825 1.40088Z" fill="#5E4FA2"/>
</svg>
