<svg width="18" height="16" viewBox="0 0 18 16" fill="none" xmlns="http://www.w3.org/2000/svg">
<path d="M8.82037 0.386719C7.19336 0.386719 5.86337 1.42078 5.00836 2.30579C4.56738 2.7627 4.21738 3.21667 3.97836 3.55469C3.92438 3.63074 3.87537 3.70178 3.83337 3.76575H2.07037C1.24237 3.76575 0.570374 4.43774 0.570374 5.26575V10.4518C0.570374 11.2798 1.24237 11.9518 2.07037 11.9518H3.82938C3.87238 12.0167 3.92038 12.0887 3.97437 12.1667C4.21338 12.5098 4.56339 12.9717 5.00436 13.4357C5.85736 14.3328 7.18839 15.3867 8.82037 15.3867C9.23438 15.3867 9.57037 15.0508 9.57037 14.6367V1.13672C9.57037 0.722778 9.23438 0.386719 8.82037 0.386719Z" fill="#02B0B1"/>
<path fill-rule="evenodd" clip-rule="evenodd" d="M11.2613 4.01187C11.5363 3.70388 12.0113 3.6769 12.3203 3.95291C12.5933 4.19692 12.8403 4.46987 13.0573 4.76687C13.6943 5.63882 14.0703 6.71987 14.0703 7.88687C14.0703 9.04385 13.7013 10.1168 13.0743 10.9849C12.8533 11.2909 12.6003 11.5708 12.3203 11.8208C12.0113 12.0968 11.5363 12.0708 11.2613 11.7619C10.9853 11.4529 11.0113 10.9779 11.3203 10.7029C11.5203 10.5249 11.7003 10.3249 11.8583 10.1059C12.3053 9.48782 12.5703 8.72085 12.5703 7.88687C12.5703 7.04592 12.3003 6.27285 11.8463 5.6509C11.6913 5.43887 11.5153 5.2449 11.3203 5.07083C11.0113 4.79592 10.9853 4.32083 11.2613 4.01187Z" fill="#02B0B1"/>
<path fill-rule="evenodd" clip-rule="evenodd" d="M12.1224 1.10973C12.3404 0.756706 12.8024 0.647697 13.1554 0.865715C15.5034 2.31872 17.0704 4.91967 17.0704 7.88671C17.0704 10.9007 15.4534 13.5367 13.0434 14.9757C12.6874 15.1877 12.2274 15.0718 12.0144 14.7157C11.8024 14.3597 11.9184 13.8998 12.2744 13.6877C14.2504 12.5077 15.5704 10.3517 15.5704 7.88671C15.5704 5.46069 14.2904 3.33276 12.3664 2.14172C12.0134 1.9237 11.9044 1.46166 12.1224 1.10973Z" fill="#02B0B1"/>
</svg>
