<svg width="18" height="16" viewBox="0 0 18 16" fill="none" xmlns="http://www.w3.org/2000/svg">
<path d="M8.87036 0.617676C7.24335 0.617676 5.91336 1.65161 5.05835 2.53662C4.61737 2.99365 4.26736 3.44751 4.02835 3.78564C3.97437 3.86157 3.92535 3.93262 3.88336 3.99658H2.12036C1.29236 3.99658 0.620361 4.6687 0.620361 5.49658V10.6826C0.620361 11.5105 1.29236 12.1826 2.12036 12.1826H3.87936C3.92236 12.2476 3.97037 12.3196 4.02435 12.3977C4.26337 12.7407 4.61337 13.2026 5.05435 13.6665C5.90735 14.5637 7.23837 15.6177 8.87036 15.6177C9.28436 15.6177 9.62036 15.2815 9.62036 14.8677V1.36768C9.62036 0.953613 9.28436 0.617676 8.87036 0.617676Z" fill="#EA6CA4"/>
<path fill-rule="evenodd" clip-rule="evenodd" d="M11.3113 4.24264C11.5863 3.93453 12.0613 3.90768 12.3703 4.18356C12.6433 4.42745 12.8903 4.70065 13.1073 4.99752C13.7443 5.86959 14.1203 6.95065 14.1203 8.11764C14.1203 9.27462 13.7513 10.3476 13.1243 11.2155C12.9033 11.5217 12.6503 11.8015 12.3703 12.0515C12.0613 12.3276 11.5863 12.3015 11.3113 11.9926C11.0353 11.6836 11.0613 11.2085 11.3703 10.9336C11.5703 10.7556 11.7503 10.5556 11.9083 10.3366C12.3553 9.71847 12.6203 8.95162 12.6203 8.11764C12.6203 7.27658 12.3503 6.50363 11.8963 5.88156C11.7413 5.66964 11.5653 5.47555 11.3703 5.30148C11.0613 5.02658 11.0353 4.55148 11.3113 4.24264Z" fill="#EA6CA4"/>
<path fill-rule="evenodd" clip-rule="evenodd" d="M12.1723 1.3406C12.3903 0.987575 12.8523 0.878688 13.2053 1.09671C15.5533 2.54959 17.1203 5.15066 17.1203 8.1177C17.1203 11.1316 15.5033 13.7676 13.0933 15.2066C12.7373 15.4187 12.2773 15.3025 12.0643 14.9466C11.8523 14.5906 11.9683 14.1306 12.3243 13.9187C14.3003 12.7386 15.6203 10.5825 15.6203 8.1177C15.6203 5.69168 14.3403 3.56375 12.4163 2.37258C12.0633 2.15457 11.9543 1.69265 12.1723 1.3406Z" fill="#EA6CA4"/>
</svg>
