<svg width="17" height="16" viewBox="0 0 17 16" fill="none" xmlns="http://www.w3.org/2000/svg">
<path d="M8.50916 0.47583C6.88214 0.47583 5.55215 1.50983 4.69714 2.39484C4.25616 2.85181 3.90616 3.30579 3.66714 3.6438C3.61316 3.71979 3.56415 3.79083 3.52216 3.8548H1.75916C0.931152 3.8548 0.259155 4.52679 0.259155 5.3548V10.5408C0.259155 11.3688 0.931152 12.0408 1.75916 12.0408H3.51816C3.56116 12.1058 3.60916 12.1778 3.66315 12.2558C3.90216 12.5988 4.25217 13.0608 4.69315 13.5248C5.54614 14.4218 6.87717 15.4758 8.50916 15.4758C8.92316 15.4758 9.25916 15.1398 9.25916 14.7258V1.22583C9.25916 0.811829 8.92316 0.47583 8.50916 0.47583Z" fill="#3771DF"/>
<path fill-rule="evenodd" clip-rule="evenodd" d="M10.9502 4.10091C11.2252 3.79287 11.7002 3.76589 12.0092 4.04189C12.2822 4.28591 12.5292 4.55886 12.7462 4.85591C13.3832 5.72786 13.7592 6.80886 13.7592 7.97591C13.7592 9.13289 13.3902 10.2059 12.7632 11.0739C12.5422 11.3799 12.2892 11.6599 12.0092 11.9099C11.7002 12.1859 11.2252 12.1599 10.9502 11.8509C10.6742 11.5419 10.7002 11.0669 11.0092 10.7919C11.2092 10.6139 11.3892 10.4139 11.5472 10.1949C11.9942 9.57686 12.2592 8.80989 12.2592 7.97591C12.2592 7.13491 11.9892 6.3619 11.5352 5.73989C11.3802 5.52791 11.2042 5.33388 11.0092 5.15987C10.7002 4.88491 10.6742 4.40987 10.9502 4.10091Z" fill="#3771DF"/>
<path fill-rule="evenodd" clip-rule="evenodd" d="M11.8111 1.19879C12.0291 0.84582 12.4911 0.736811 12.8441 0.954828C15.1921 2.40783 16.7591 5.00878 16.7591 7.97582C16.7591 10.9898 15.1421 13.6258 12.7321 15.0648C12.3761 15.2768 11.9161 15.1608 11.7031 14.8048C11.4911 14.4488 11.6071 13.9888 11.9631 13.7768C13.9391 12.5968 15.2591 10.4408 15.2591 7.97582C15.2591 5.5498 13.9791 3.42181 12.0551 2.23083C11.7021 2.01281 11.5931 1.55078 11.8111 1.19879Z" fill="#3771DF"/>
</svg>
