<svg width="18" height="18" viewBox="0 0 18 18" fill="none" xmlns="http://www.w3.org/2000/svg">
  <path d="M9 1.5C7.37274 1.5 6.04273 2.53378 5.18833 3.41854C4.74705 3.8755 4.39712 4.32951 4.15775 4.66822C4.10392 4.74438 4.05544 4.81506 4.01252 4.87905H2.25C1.42158 4.87905 0.75 5.5506 0.75 6.37905V11.5647C0.75 12.3931 1.42158 13.0647 2.25 13.0647H4.00884C4.05183 13.1298 4.10042 13.2019 4.1544 13.2795C4.3935 13.6235 4.74311 14.0846 5.18405 14.5489C6.03666 15.4465 7.36783 16.5 9 16.5C9.41421 16.5 9.75 16.1642 9.75 15.75V2.25C9.75 1.83579 9.41421 1.5 9 1.5Z" fill="#55B85E"/>
  <path fill-rule="evenodd" clip-rule="evenodd" d="M11.4406 5.12546C11.7165 4.8165 12.1906 4.78969 12.4996 5.06559C12.7728 5.30956 13.0201 5.58252 13.2372 5.8797C13.8741 6.75173 14.25 7.83288 14.25 9.00001C14.25 10.157 13.8806 11.2295 13.2537 12.0976C13.0328 12.4035 12.7797 12.6842 12.4996 12.9344C12.1906 13.2103 11.7165 13.1835 11.4406 12.8746C11.1647 12.5656 11.1915 12.0915 11.5005 11.8156C11.6996 11.6378 11.8799 11.4379 12.0376 11.2194C12.0377 11.2194 12.0376 11.2194 12.0376 11.2194C12.4846 10.6005 12.75 9.83385 12.75 9.00001C12.75 8.15887 12.4799 7.38609 12.0259 6.76442C11.8709 6.55227 11.6946 6.35783 11.5005 6.18443C11.1915 5.90854 11.1647 5.43442 11.4406 5.12546Z" fill="#55B85E"/>
  <path fill-rule="evenodd" clip-rule="evenodd" d="M12.3023 2.22257C12.5203 1.87031 12.9825 1.7614 13.3347 1.97932C15.6829 3.43194 17.25 6.03265 17.25 8.99999C17.25 12.0142 15.6331 14.65 13.2229 16.0886C12.8672 16.3009 12.4068 16.1847 12.1945 15.829C11.9822 15.4734 12.0984 15.0129 12.4541 14.8006C14.4296 13.6214 15.75 11.4645 15.75 8.99999C15.75 6.57371 14.4704 4.44567 12.5456 3.25496C12.1933 3.03704 12.0844 2.57482 12.3023 2.22257Z" fill="#55B85E"/>
</svg>
