<svg width="25" height="25" viewBox="0 0 25 25" fill="none" xmlns="http://www.w3.org/2000/svg">
<path d="M12.8668 0.377808C19.4942 0.377808 24.8668 5.75037 24.8668 12.3778C24.8668 19.0052 19.4942 24.3778 12.8668 24.3778C6.23938 24.3778 0.866821 19.0052 0.866821 12.3778C0.866821 5.75037 6.23938 0.377808 12.8668 0.377808Z" fill="#5E4FA2"/>
<path d="M13.7828 12.3878L17.6768 8.49484C17.9298 8.24081 17.9298 7.83176 17.6768 7.57785C17.4238 7.3248 17.0138 7.3248 16.7608 7.57785L12.8668 11.4718L8.97282 7.57785C8.71977 7.3248 8.3098 7.3248 8.05681 7.57785C7.80382 7.83176 7.80382 8.24081 8.05681 8.49484L11.9508 12.3878L8.05681 16.2818C7.80382 16.5359 7.80382 16.9448 8.05681 17.1978C8.18279 17.3248 8.3488 17.3878 8.51482 17.3878C8.68083 17.3878 8.84679 17.3248 8.97282 17.1978L12.8668 13.3048L16.7608 17.1978C16.8868 17.3248 17.0528 17.3878 17.2188 17.3878C17.3848 17.3878 17.5508 17.3248 17.6768 17.1978C17.9298 16.9448 17.9298 16.5359 17.6768 16.2818L13.7828 12.3878Z" fill="white"/>
</svg>

