<!-- <svg width="25" height="25" viewBox="0 0 25 25" fill="none" xmlns="http://www.w3.org/2000/svg">
<path d="M12.0566 0.317627C18.6841 0.317627 24.0566 5.69019 24.0566 12.3176C24.0566 18.9448 18.6841 24.3176 12.0566 24.3176C5.4292 24.3176 0.0566406 18.9448 0.0566406 12.3176C0.0566406 5.69019 5.4292 0.317627 12.0566 0.317627Z" fill="#FFA300"/>
<path d="M12.9726 12.3273L16.8666 8.43451C17.1196 8.18036 17.1196 7.77142 16.8666 7.51752C16.6136 7.26434 16.2037 7.26434 15.9506 7.51752L12.0566 11.4116L8.16264 7.51752C7.90965 7.26434 7.49962 7.26434 7.24663 7.51752C6.99364 7.77142 6.99364 8.18036 7.24663 8.43451L11.1406 12.3273L7.24663 16.2214C6.99364 16.4755 6.99364 16.8845 7.24663 17.1374C7.3726 17.2643 7.53862 17.3273 7.70464 17.3273C7.87065 17.3273 8.03661 17.2643 8.16264 17.1374L12.0566 13.2446L15.9506 17.1374C16.0766 17.2643 16.2427 17.3273 16.4086 17.3273C16.5746 17.3273 16.7406 17.2643 16.8666 17.1374C17.1196 16.8845 17.1196 16.4755 16.8666 16.2214L12.9726 12.3273Z" fill="white"/>
</svg> -->
<svg width="25" height="25" viewBox="0 0 25 25" fill="none" xmlns="http://www.w3.org/2000/svg">
<path d="M12.8123 0.631836C19.4397 0.631836 24.8123 6.00439 24.8123 12.6318C24.8123 19.2593 19.4397 24.6318 12.8123 24.6318C6.18488 24.6318 0.812317 19.2593 0.812317 12.6318C0.812317 6.00439 6.18488 0.631836 12.8123 0.631836Z" fill="#FBBC4A"/>
<path d="M13.7282 12.6418L17.6223 8.74878C17.8753 8.49487 17.8753 8.08569 17.6223 7.83179C17.3693 7.57886 16.9593 7.57886 16.7063 7.83179L12.8123 11.7258L8.91824 7.83179C8.66525 7.57886 8.25528 7.57886 8.00229 7.83179C7.74924 8.08569 7.74924 8.49487 8.00229 8.74878L11.8963 12.6418L8.00229 16.5359C7.74924 16.7898 7.74924 17.1987 8.00229 17.4519C8.12827 17.5789 8.29428 17.6418 8.4603 17.6418C8.62625 17.6418 8.79227 17.5789 8.91824 17.4519L12.8123 13.5588L16.7063 17.4519C16.8322 17.5789 16.9983 17.6418 17.1643 17.6418C17.3303 17.6418 17.4962 17.5789 17.6223 17.4519C17.8753 17.1987 17.8753 16.7898 17.6223 16.5359L13.7282 12.6418Z" fill="white"/>
</svg>

